<svg width="554" height="130" viewBox="0 0 554 130" fill="none" xmlns="http://www.w3.org/2000/svg">
<path d="M75.43 68.03H43.32C41.74 72.5 37.08 75.51 31.88 74.47C28.02 73.7 24.92 70.6 24.16 66.74C22.89 60.34 27.76 54.73 33.93 54.73C38.27 54.73 41.95 57.51 43.32 61.38H63.46C77.98 59.3 89.04 46.18 88.36 30.96C87.66 15.3 74.26 3.20996 63.25 3.20996H7.96C3.61 3.20996 1 5.96996 1 9.36996V120.06C1 123.46 4.69 126.22 9.04 126.22H75.22C86.22 126.22 99.63 114.12 100.33 98.47C101.01 83.25 89.94 70.13 75.43 68.05V68.03ZM23.95 29.8H44.09C45.67 25.33 50.33 22.32 55.53 23.36C59.39 24.13 62.49 27.23 63.25 31.09C64.52 37.49 59.65 43.1 53.48 43.1C49.14 43.1 45.46 40.32 44.09 36.45H23.95V29.8ZM67.51 109.38C62.31 110.42 57.65 107.4 56.07 102.94H23.95V96.29H56.06C57.43 92.42 61.11 89.64 65.45 89.64C71.62 89.64 76.49 95.25 75.22 101.65C74.46 105.51 71.36 108.61 67.5 109.38H67.51Z" fill="url(#paint0_linear_4551_3521)"/>
<path d="M552.022 26.5498V106.268H535.168V26.5498H552.022Z" fill="black"/>
<path d="M463.625 106.268H445.564L473.084 26.5498H494.804L522.285 106.268H504.223L484.255 44.7667H483.632L463.625 106.268ZM462.496 74.9335H505.158V88.0901H462.496V74.9335Z" fill="black"/>
<path d="M387.762 106.268V46.4789H404.344V106.268H387.762ZM396.092 38.7718C393.627 38.7718 391.512 37.9543 389.747 36.3195C388.008 34.6587 387.139 32.6735 387.139 30.364C387.139 28.0804 388.008 26.1212 389.747 24.4863C391.512 22.8255 393.627 21.9951 396.092 21.9951C398.557 21.9951 400.659 22.8255 402.398 24.4863C404.162 26.1212 405.044 28.0804 405.044 30.364C405.044 32.6735 404.162 34.6587 402.398 36.3195C400.659 37.9543 398.557 38.7718 396.092 38.7718Z" fill="black"/>
<path d="M335.389 46.4795L346.366 67.3822L357.615 46.4795H374.626L357.304 76.3738L375.093 106.268H358.16L346.366 85.599L334.767 106.268H317.64L335.389 76.3738L318.262 46.4795H335.389Z" fill="black"/>
<path d="M280.175 107.435C274.129 107.435 268.9 106.151 264.488 103.582C260.103 100.987 256.716 97.3795 254.329 92.7604C251.942 88.1154 250.748 82.7308 250.748 76.6066C250.748 70.4305 251.942 65.0329 254.329 60.4138C256.716 55.7688 260.103 52.1617 264.488 49.5927C268.9 46.9977 274.129 45.7002 280.175 45.7002C286.222 45.7002 291.437 46.9977 295.823 49.5927C300.234 52.1617 303.634 55.7688 306.021 60.4138C308.409 65.0329 309.602 70.4305 309.602 76.6066C309.602 82.7308 308.409 88.1154 306.021 92.7604C303.634 97.3795 300.234 100.987 295.823 103.582C291.437 106.151 286.222 107.435 280.175 107.435ZM280.253 94.5899C283.004 94.5899 285.3 93.8114 287.143 92.2544C288.985 90.6714 290.374 88.5176 291.308 85.7929C292.268 83.0681 292.748 79.9671 292.748 76.4898C292.748 73.0125 292.268 69.9115 291.308 67.1867C290.374 64.462 288.985 62.3082 287.143 60.7252C285.3 59.1423 283.004 58.3508 280.253 58.3508C277.476 58.3508 275.141 59.1423 273.247 60.7252C271.378 62.3082 269.964 64.462 269.004 67.1867C268.07 69.9115 267.602 73.0125 267.602 76.4898C267.602 79.9671 268.07 83.0681 269.004 85.7929C269.964 88.5176 271.378 90.6714 273.247 92.2544C275.141 93.8114 277.476 94.5899 280.253 94.5899Z" fill="black"/>
<path d="M207.805 106.268V46.4789H223.881V56.9108H224.504C225.594 53.1999 227.423 50.3973 229.992 48.503C232.561 46.5827 235.52 45.6226 238.867 45.6226C239.697 45.6226 240.593 45.6745 241.553 45.7783C242.513 45.8821 243.356 46.0248 244.083 46.2064V60.92C243.305 60.6865 242.228 60.4789 240.852 60.2972C239.477 60.1156 238.218 60.0248 237.077 60.0248C234.637 60.0248 232.457 60.5567 230.537 61.6207C228.643 62.6587 227.138 64.1119 226.022 65.9803C224.932 67.8487 224.387 70.0025 224.387 72.4418V106.268H207.805Z" fill="black"/>
<path d="M132.36 106.268V26.5498H164.278C170.143 26.5498 175.034 27.4191 178.953 29.1578C182.871 30.8964 185.816 33.3098 187.789 36.3978C189.761 39.4599 190.747 42.9891 190.747 46.9854C190.747 50.0994 190.124 52.8371 188.879 55.1985C187.633 57.534 185.92 59.4543 183.74 60.9594C181.587 62.4386 179.121 63.4895 176.345 64.1123V64.8908C179.381 65.0206 182.222 65.8769 184.869 67.4599C187.542 69.0428 189.709 71.2616 191.37 74.116C193.031 76.9446 193.861 80.3181 193.861 84.2365C193.861 88.4664 192.81 92.2421 190.708 95.5637C188.632 98.8593 185.557 101.467 181.483 103.388C177.409 105.308 172.387 106.268 166.419 106.268H132.36ZM149.214 92.4886H162.955C167.652 92.4886 171.077 91.5933 173.231 89.8028C175.385 87.9863 176.462 85.5729 176.462 82.5628C176.462 80.357 175.93 78.4108 174.866 76.724C173.802 75.0373 172.284 73.7138 170.311 72.7537C168.365 71.7935 166.043 71.3135 163.344 71.3135H149.214V92.4886ZM149.214 59.9085H161.709C164.019 59.9085 166.069 59.5062 167.859 58.7018C169.676 57.8714 171.103 56.7036 172.141 55.1985C173.205 53.6934 173.737 51.8899 173.737 49.788C173.737 46.9075 172.712 44.585 170.662 42.8204C168.638 41.0558 165.757 40.1735 162.02 40.1735H149.214V59.9085Z" fill="black"/>
<defs>
<linearGradient id="paint0_linear_4551_3521" x1="50.68" y1="3.20996" x2="50.68" y2="126.21" gradientUnits="userSpaceOnUse">
<stop stop-color="#18E8D9"/>
<stop offset="0.53" stop-color="#3BB0E1"/>
<stop offset="1" stop-color="#5E7BEA"/>
</linearGradient>
</defs>
</svg>
