<svg width="512" height="514" viewBox="0 0 512 514" fill="none" xmlns="http://www.w3.org/2000/svg">
<path d="M302.217 198.695H242.237C239.277 207.045 230.577 212.665 220.857 210.735C213.647 209.295 207.857 203.495 206.437 196.295C204.077 184.335 213.157 173.865 224.687 173.865C232.797 173.865 239.677 179.055 242.237 186.285H279.857C306.977 182.395 327.647 157.895 326.377 129.455C325.067 100.205 300.027 77.615 279.477 77.615H176.187C168.057 77.615 163.197 82.765 163.197 89.115V295.885C163.197 302.235 170.087 307.385 178.227 307.385H301.847C322.407 307.385 347.437 284.785 348.747 255.545C350.017 227.105 329.347 202.605 302.227 198.715L302.217 198.695ZM206.057 127.275H243.677C246.637 118.925 255.337 113.305 265.057 115.235C272.267 116.675 278.057 122.475 279.477 129.675C281.837 141.635 272.757 152.105 261.227 152.105C253.117 152.105 246.237 146.915 243.677 139.685H206.057V127.265V127.275ZM287.417 275.935C277.707 277.865 268.997 272.245 266.037 263.895H206.057V251.475H266.037C268.597 244.245 275.477 239.055 283.587 239.055C295.117 239.055 304.207 249.535 301.837 261.485C300.407 268.695 294.617 274.495 287.417 275.925V275.935Z" fill="white"/>
<path d="M465.831 355.94V435.658H448.977V355.94H465.831Z" fill="white"/>
<path d="M377.434 435.658H359.373L386.893 355.94H408.613L436.094 435.658H418.032L398.064 374.157H397.441L377.434 435.658ZM376.305 404.323H418.967V417.48H376.305V404.323Z" fill="white"/>
<path d="M301.571 435.657V375.869H318.153V435.657H301.571ZM309.901 368.162C307.435 368.162 305.321 367.344 303.556 365.709C301.817 364.049 300.948 362.063 300.948 359.754C300.948 357.47 301.817 355.511 303.556 353.876C305.321 352.215 307.435 351.385 309.901 351.385C312.366 351.385 314.468 352.215 316.207 353.876C317.971 355.511 318.853 357.47 318.853 359.754C318.853 362.063 317.971 364.049 316.207 365.709C314.468 367.344 312.366 368.162 309.901 368.162Z" fill="white"/>
<path d="M249.198 375.869L260.175 396.772L271.424 375.869H288.435L271.113 405.763L288.902 435.658H271.969L260.175 414.989L248.576 435.658H231.449L249.198 405.763L232.071 375.869H249.198Z" fill="white"/>
<path d="M193.984 436.825C187.938 436.825 182.709 435.54 178.297 432.971C173.912 430.376 170.525 426.769 168.138 422.15C165.751 417.505 164.557 412.121 164.557 405.996C164.557 399.82 165.751 394.423 168.138 389.804C170.525 385.159 173.912 381.552 178.297 378.983C182.709 376.388 187.938 375.09 193.984 375.09C200.031 375.09 205.246 376.388 209.632 378.983C214.043 381.552 217.443 385.159 219.83 389.804C222.218 394.423 223.411 399.82 223.411 405.996C223.411 412.121 222.218 417.505 219.83 422.15C217.443 426.769 214.043 430.376 209.632 432.971C205.246 435.54 200.031 436.825 193.984 436.825ZM194.062 423.98C196.813 423.98 199.109 423.201 200.952 421.644C202.794 420.061 204.182 417.907 205.117 415.183C206.077 412.458 206.557 409.357 206.557 405.88C206.557 402.402 206.077 399.301 205.117 396.577C204.182 393.852 202.794 391.698 200.952 390.115C199.109 388.532 196.813 387.741 194.062 387.741C191.285 387.741 188.95 388.532 187.056 390.115C185.187 391.698 183.773 393.852 182.813 396.577C181.879 399.301 181.411 402.402 181.411 405.88C181.411 409.357 181.879 412.458 182.813 415.183C183.773 417.907 185.187 420.061 187.056 421.644C188.95 423.201 191.285 423.98 194.062 423.98Z" fill="white"/>
<path d="M121.614 435.657V375.869H137.69V386.301H138.313C139.403 382.59 141.232 379.787 143.801 377.893C146.37 375.973 149.329 375.012 152.676 375.012C153.506 375.012 154.402 375.064 155.362 375.168C156.322 375.272 157.165 375.415 157.892 375.596V390.31C157.114 390.076 156.037 389.869 154.661 389.687C153.286 389.505 152.027 389.415 150.886 389.415C148.446 389.415 146.266 389.947 144.346 391.011C142.452 392.049 140.947 393.502 139.831 395.37C138.741 397.239 138.196 399.392 138.196 401.832V435.657H121.614Z" fill="white"/>
<path d="M46.1687 435.658V355.94H78.0871C83.9517 355.94 88.8433 356.809 92.7617 358.548C96.6802 360.286 99.6255 362.7 101.598 365.788C103.57 368.85 104.556 372.379 104.556 376.375C104.556 379.489 103.933 382.227 102.688 384.588C101.442 386.924 99.7293 388.844 97.5495 390.349C95.3956 391.828 92.9304 392.879 90.1538 393.502V394.281C93.1899 394.41 96.0314 395.267 98.6783 396.85C101.351 398.433 103.518 400.651 105.179 403.506C106.84 406.334 107.67 409.708 107.67 413.626C107.67 417.856 106.619 421.632 104.517 424.954C102.441 428.249 99.366 430.857 95.2918 432.777C91.2177 434.698 86.1964 435.658 80.2279 435.658H46.1687ZM63.0232 421.878H76.7636C81.4605 421.878 84.8859 420.983 87.0398 419.193C89.1936 417.376 90.2705 414.963 90.2705 411.953C90.2705 409.747 89.7386 407.801 88.6746 406.114C87.6107 404.427 86.0926 403.104 84.1204 402.144C82.1742 401.183 79.8517 400.703 77.1529 400.703H63.0232V421.878ZM63.0232 389.298H75.518C77.8276 389.298 79.8776 388.896 81.6681 388.092C83.4846 387.261 84.9119 386.094 85.9499 384.588C87.0138 383.083 87.5458 381.28 87.5458 379.178C87.5458 376.297 86.5208 373.975 84.4707 372.21C82.4466 370.446 79.5662 369.563 75.8294 369.563H63.0232V389.298Z" fill="white"/>
</svg>
