<svg width="600" height="601" viewBox="0 0 600 601" fill="none" xmlns="http://www.w3.org/2000/svg">
<g clip-path="url(#clip0_4551_3599)">
<path d="M600 0.219971H0V600.22H600V0.219971Z" fill="black"/>
<path d="M98.7092 303.45H67.5092C65.9692 307.79 61.4392 310.72 56.3892 309.71C52.6392 308.96 49.6292 305.95 48.8892 302.2C47.6592 295.98 52.3892 290.53 58.3792 290.53C62.5992 290.53 66.1692 293.23 67.5092 296.99H87.0792C101.179 294.97 111.939 282.22 111.279 267.43C110.599 252.22 97.5792 240.46 86.8792 240.46H33.1592C28.9292 240.46 26.3992 243.14 26.3992 246.44V353.99C26.3992 357.29 29.9792 359.97 34.2192 359.97H98.5192C109.209 359.97 122.229 348.22 122.919 333C123.579 318.21 112.829 305.46 98.7192 303.44L98.7092 303.45ZM48.6892 266.31H68.2592C69.7992 261.97 74.3292 259.04 79.3792 260.05C83.1292 260.8 86.1392 263.81 86.8792 267.56C88.1092 273.78 83.3792 279.23 77.3892 279.23C73.1692 279.23 69.5992 276.53 68.2592 272.77H48.6892V266.31ZM91.0092 343.63C85.9592 344.64 81.4292 341.71 79.8892 337.37H48.6892V330.91H79.8892C81.2192 327.15 84.7992 324.45 89.0192 324.45C95.0192 324.45 99.7392 329.9 98.5092 336.12C97.7692 339.87 94.7592 342.89 91.0092 343.63Z" fill="url(#paint0_linear_4551_3599)"/>
<path d="M573.611 262.05V341.768H556.756V262.05H573.611Z" fill="white"/>
<path d="M485.213 341.768H467.152L494.672 262.05H516.392L543.873 341.768H525.812L505.843 280.266H505.22L485.213 341.768ZM484.084 310.433H526.746V323.59H484.084V310.433Z" fill="white"/>
<path d="M409.35 341.767V281.979H425.932V341.767H409.35ZM417.68 274.272C415.215 274.272 413.1 273.454 411.335 271.819C409.597 270.158 408.727 268.173 408.727 265.864C408.727 263.58 409.597 261.621 411.335 259.986C413.1 258.325 415.215 257.495 417.68 257.495C420.145 257.495 422.247 258.325 423.986 259.986C425.75 261.621 426.633 263.58 426.633 265.864C426.633 268.173 425.75 270.158 423.986 271.819C422.247 273.454 420.145 274.272 417.68 274.272Z" fill="white"/>
<path d="M356.978 281.979L367.954 302.882L379.204 281.979H396.214L378.892 311.873L396.681 341.768H379.749L367.954 321.099L356.355 341.768H339.228L356.978 311.873L339.851 281.979H356.978Z" fill="white"/>
<path d="M301.763 342.935C295.717 342.935 290.488 341.65 286.077 339.081C281.691 336.486 278.305 332.879 275.917 328.26C273.53 323.615 272.336 318.231 272.336 312.106C272.336 305.93 273.53 300.533 275.917 295.914C278.305 291.269 281.691 287.661 286.077 285.092C290.488 282.497 295.717 281.2 301.763 281.2C307.81 281.2 313.026 282.497 317.411 285.092C321.823 287.661 325.222 291.269 327.61 295.914C329.997 300.533 331.191 305.93 331.191 312.106C331.191 318.231 329.997 323.615 327.61 328.26C325.222 332.879 321.823 336.486 317.411 339.081C313.026 341.65 307.81 342.935 301.763 342.935ZM301.841 330.09C304.592 330.09 306.889 329.311 308.731 327.754C310.573 326.171 311.962 324.017 312.896 321.293C313.856 318.568 314.336 315.467 314.336 311.99C314.336 308.512 313.856 305.411 312.896 302.687C311.962 299.962 310.573 297.808 308.731 296.225C306.889 294.642 304.592 293.851 301.841 293.851C299.065 293.851 296.729 294.642 294.835 296.225C292.966 297.808 291.552 299.962 290.592 302.687C289.658 305.411 289.191 308.512 289.191 311.99C289.191 315.467 289.658 318.568 290.592 321.293C291.552 324.017 292.966 326.171 294.835 327.754C296.729 329.311 299.065 330.09 301.841 330.09Z" fill="white"/>
<path d="M229.393 341.767V281.979H245.469V292.411H246.092C247.182 288.7 249.011 285.897 251.58 284.003C254.15 282.082 257.108 281.122 260.455 281.122C261.286 281.122 262.181 281.174 263.141 281.278C264.101 281.382 264.945 281.525 265.671 281.706V296.42C264.893 296.186 263.816 295.979 262.44 295.797C261.065 295.615 259.807 295.525 258.665 295.525C256.225 295.525 254.046 296.057 252.125 297.12C250.231 298.158 248.726 299.612 247.61 301.48C246.52 303.348 245.975 305.502 245.975 307.942V341.767H229.393Z" fill="white"/>
<path d="M153.948 341.768V262.05H185.866C191.731 262.05 196.623 262.919 200.541 264.658C204.459 266.396 207.405 268.81 209.377 271.898C211.349 274.96 212.335 278.489 212.335 282.485C212.335 285.599 211.712 288.337 210.467 290.698C209.221 293.034 207.509 294.954 205.329 296.459C203.175 297.938 200.71 298.989 197.933 299.612V300.391C200.969 300.52 203.811 301.377 206.458 302.96C209.13 304.543 211.297 306.761 212.958 309.616C214.619 312.444 215.449 315.818 215.449 319.736C215.449 323.966 214.398 327.742 212.296 331.063C210.22 334.359 207.145 336.967 203.071 338.887C198.997 340.808 193.976 341.768 188.007 341.768H153.948ZM170.802 327.988H184.543C189.24 327.988 192.665 327.093 194.819 325.303C196.973 323.486 198.05 321.073 198.05 318.063C198.05 315.857 197.518 313.911 196.454 312.224C195.39 310.537 193.872 309.214 191.9 308.253C189.953 307.293 187.631 306.813 184.932 306.813H170.802V327.988ZM170.802 295.408H183.297C185.607 295.408 187.657 295.006 189.447 294.202C191.264 293.371 192.691 292.203 193.729 290.698C194.793 289.193 195.325 287.39 195.325 285.288C195.325 282.407 194.3 280.085 192.25 278.32C190.226 276.556 187.346 275.673 183.609 275.673H170.802V295.408Z" fill="white"/>
</g>
<defs>
<linearGradient id="paint0_linear_4551_3599" x1="74.6592" y1="240.47" x2="74.6592" y2="359.97" gradientUnits="userSpaceOnUse">
<stop stop-color="#18E8D9"/>
<stop offset="0.53" stop-color="#3BB0E1"/>
<stop offset="1" stop-color="#5E7BEA"/>
</linearGradient>
<clipPath id="clip0_4551_3599">
<rect width="600" height="600" fill="white" transform="translate(0 0.219971)"/>
</clipPath>
</defs>
</svg>
