<svg width="512" height="513" viewBox="0 0 512 513" fill="none" xmlns="http://www.w3.org/2000/svg">
<path d="M290.899 212.16H245.619C243.389 218.46 236.809 222.71 229.479 221.25C224.039 220.17 219.669 215.79 218.589 210.35C216.809 201.32 223.659 193.41 232.369 193.41C238.489 193.41 243.679 197.33 245.619 202.79H274.019C294.489 199.85 310.099 181.36 309.139 159.89C308.149 137.81 289.249 120.75 273.729 120.75H195.749C189.609 120.75 185.939 124.64 185.939 129.43V285.52C185.939 290.31 191.139 294.2 197.279 294.2H290.609C306.129 294.2 325.029 277.14 326.019 255.06C326.979 233.59 311.369 215.09 290.899 212.16ZM218.309 158.25H246.709C248.939 151.95 255.519 147.7 262.849 149.16C268.289 150.24 272.659 154.62 273.739 160.06C275.519 169.09 268.669 177 259.959 177C253.839 177 248.649 173.08 246.709 167.62H218.309V158.24V158.25ZM279.729 270.47C272.399 271.93 265.819 267.68 263.589 261.38H218.309V252H263.589C265.519 246.54 270.719 242.62 276.839 242.62C285.549 242.62 292.399 250.53 290.619 259.56C289.539 265 285.169 269.38 279.729 270.46V270.47Z" fill="url(#paint0_linear_4551_3563)"/>
<path d="M414.38 330.638V390.809H401.659V330.638H414.38Z" fill="black"/>
<path d="M347.658 390.809H334.026L354.798 330.638H371.192L391.934 390.809H378.302L363.23 344.388H362.76L347.658 390.809ZM346.806 367.158H379.007V377.088H346.806V367.158Z" fill="black"/>
<path d="M290.397 390.808V345.68H302.913V390.808H290.397ZM296.684 339.863C294.823 339.863 293.227 339.246 291.895 338.012C290.583 336.758 289.927 335.26 289.927 333.517C289.927 331.793 290.583 330.314 291.895 329.08C293.227 327.826 294.823 327.2 296.684 327.2C298.545 327.2 300.131 327.826 301.444 329.08C302.776 330.314 303.442 331.793 303.442 333.517C303.442 335.26 302.776 336.758 301.444 338.012C300.131 339.246 298.545 339.863 296.684 339.863Z" fill="black"/>
<path d="M250.866 345.68L259.151 361.457L267.642 345.68H280.482L267.407 368.244L280.834 390.809H268.054L259.151 375.208L250.396 390.809H237.469L250.866 368.244L237.939 345.68H250.866Z" fill="black"/>
<path d="M209.191 391.69C204.627 391.69 200.68 390.72 197.35 388.781C194.04 386.822 191.484 384.1 189.682 380.613C187.88 377.107 186.979 373.043 186.979 368.42C186.979 363.759 187.88 359.685 189.682 356.198C191.484 352.692 194.04 349.969 197.35 348.03C200.68 346.072 204.627 345.092 209.191 345.092C213.754 345.092 217.691 346.072 221.001 348.03C224.331 349.969 226.897 352.692 228.699 356.198C230.501 359.685 231.402 363.759 231.402 368.42C231.402 373.043 230.501 377.107 228.699 380.613C226.897 384.1 224.331 386.822 221.001 388.781C217.691 390.72 213.754 391.69 209.191 391.69ZM209.249 381.994C211.326 381.994 213.059 381.407 214.45 380.231C215.84 379.037 216.888 377.411 217.593 375.354C218.318 373.298 218.68 370.957 218.68 368.332C218.68 365.708 218.318 363.367 217.593 361.31C216.888 359.254 215.84 357.628 214.45 356.433C213.059 355.238 211.326 354.641 209.249 354.641C207.153 354.641 205.391 355.238 203.961 356.433C202.551 357.628 201.483 359.254 200.758 361.31C200.053 363.367 199.701 365.708 199.701 368.332C199.701 370.957 200.053 373.298 200.758 375.354C201.483 377.411 202.551 379.037 203.961 380.231C205.391 381.407 207.153 381.994 209.249 381.994Z" fill="black"/>
<path d="M154.566 390.808V345.68H166.7V353.554H167.17C167.993 350.753 169.373 348.638 171.313 347.208C173.252 345.758 175.485 345.034 178.011 345.034C178.638 345.034 179.314 345.073 180.039 345.151C180.763 345.23 181.4 345.337 181.948 345.474V356.58C181.361 356.404 180.548 356.247 179.51 356.11C178.472 355.973 177.522 355.904 176.66 355.904C174.819 355.904 173.173 356.306 171.724 357.109C170.294 357.893 169.158 358.989 168.316 360.4C167.493 361.81 167.082 363.436 167.082 365.277V390.808H154.566Z" fill="black"/>
<path d="M97.6196 390.809V330.638H121.712C126.138 330.638 129.83 331.294 132.788 332.606C135.746 333.919 137.969 335.74 139.457 338.071C140.946 340.382 141.69 343.046 141.69 346.062C141.69 348.413 141.22 350.479 140.28 352.262C139.34 354.025 138.047 355.474 136.402 356.61C134.776 357.726 132.915 358.52 130.819 358.99V359.577C133.111 359.675 135.256 360.322 137.254 361.517C139.271 362.711 140.907 364.386 142.16 366.541C143.414 368.676 144.041 371.222 144.041 374.18C144.041 377.372 143.247 380.222 141.661 382.729C140.094 385.217 137.773 387.185 134.698 388.635C131.623 390.084 127.832 390.809 123.327 390.809H97.6196ZM110.341 380.408H120.713C124.258 380.408 126.843 379.732 128.469 378.381C130.095 377.01 130.908 375.188 130.908 372.916C130.908 371.251 130.506 369.782 129.703 368.509C128.9 367.236 127.754 366.237 126.266 365.512C124.797 364.788 123.043 364.425 121.006 364.425H110.341V380.408ZM110.341 355.817H119.772C121.516 355.817 123.063 355.513 124.415 354.906C125.786 354.279 126.863 353.398 127.646 352.262C128.449 351.126 128.851 349.764 128.851 348.178C128.851 346.004 128.077 344.251 126.53 342.919C125.002 341.587 122.828 340.921 120.008 340.921H110.341V355.817Z" fill="black"/>
<defs>
<linearGradient id="paint0_linear_4551_3563" x1="255.999" y1="120.75" x2="255.999" y2="294.2" gradientUnits="userSpaceOnUse">
<stop stop-color="#18E8D9"/>
<stop offset="0.53" stop-color="#3BB0E1"/>
<stop offset="1" stop-color="#5E7BEA"/>
</linearGradient>
</defs>
</svg>
