<svg width="523" height="513" viewBox="0 0 523 513" fill="none" xmlns="http://www.w3.org/2000/svg">
<path d="M105.373 259.085H81.273C80.083 262.435 76.583 264.695 72.683 263.925C69.783 263.345 67.463 261.015 66.883 258.125C65.933 253.325 69.583 249.115 74.213 249.115C77.473 249.115 80.233 251.195 81.263 254.105H96.373C107.273 252.545 115.573 242.695 115.063 231.275C114.553 219.855 104.473 210.445 96.213 210.445H54.713C51.443 210.445 49.493 212.515 49.493 215.065V298.145C49.493 300.695 52.263 302.765 55.533 302.765H105.203C113.463 302.765 123.523 293.685 124.053 281.935C124.563 270.505 116.253 260.665 105.363 259.105L105.373 259.085ZM66.743 230.385H81.853C83.043 227.035 86.543 224.775 90.443 225.545C93.343 226.125 95.663 228.455 96.243 231.345C97.193 236.145 93.543 240.355 88.913 240.355C85.653 240.355 82.893 238.275 81.863 235.365H66.753V230.375L66.743 230.385ZM99.433 290.115C95.533 290.895 92.033 288.635 90.843 285.275H66.743V280.285H90.843C91.873 277.375 94.633 275.295 97.893 275.295C102.523 275.295 106.173 279.505 105.223 284.305C104.653 287.205 102.323 289.535 99.423 290.105L99.433 290.115Z" fill="url(#paint0_linear_4551_3454)"/>
<path d="M473.507 227.009V288.827H460.437V227.009H473.507Z" fill="black"/>
<path d="M404.958 288.827H390.953L412.293 227.009H429.136L450.447 288.827H436.441L420.956 241.135H420.473L404.958 288.827ZM404.083 264.528H437.165V274.731H404.083V264.528Z" fill="black"/>
<path d="M346.13 288.827V242.463H358.988V288.827H346.13ZM352.589 236.487C350.677 236.487 349.037 235.853 347.669 234.585C346.321 233.297 345.647 231.758 345.647 229.967C345.647 228.196 346.321 226.677 347.669 225.409C349.037 224.121 350.677 223.477 352.589 223.477C354.501 223.477 356.131 224.121 357.479 225.409C358.847 226.677 359.532 228.196 359.532 229.967C359.532 231.758 358.847 233.297 357.479 234.585C356.131 235.853 354.501 236.487 352.589 236.487Z" fill="black"/>
<path d="M305.517 242.463L314.029 258.673L322.752 242.463H335.943L322.511 265.645L336.305 288.827H323.175L314.029 272.799L305.034 288.827H291.752L305.517 265.645L292.235 242.463H305.517Z" fill="black"/>
<path d="M262.7 289.732C258.012 289.732 253.957 288.736 250.536 286.744C247.135 284.732 244.509 281.935 242.658 278.353C240.806 274.751 239.881 270.575 239.881 265.826C239.881 261.037 240.806 256.851 242.658 253.269C244.509 249.667 247.135 246.87 250.536 244.878C253.957 242.866 258.012 241.859 262.7 241.859C267.389 241.859 271.434 242.866 274.835 244.878C278.255 246.87 280.892 249.667 282.743 253.269C284.594 256.851 285.52 261.037 285.52 265.826C285.52 270.575 284.594 274.751 282.743 278.353C280.892 281.935 278.255 284.732 274.835 286.744C271.434 288.736 267.389 289.732 262.7 289.732ZM262.761 279.771C264.894 279.771 266.675 279.168 268.103 277.96C269.532 276.733 270.609 275.063 271.333 272.95C272.078 270.837 272.45 268.432 272.45 265.735C272.45 263.039 272.078 260.634 271.333 258.521C270.609 256.408 269.532 254.738 268.103 253.511C266.675 252.283 264.894 251.669 262.761 251.669C260.608 251.669 258.796 252.283 257.327 253.511C255.879 254.738 254.782 256.408 254.037 258.521C253.313 260.634 252.951 263.039 252.951 265.735C252.951 268.432 253.313 270.837 254.037 272.95C254.782 275.063 255.879 276.733 257.327 277.96C258.796 279.168 260.608 279.771 262.761 279.771Z" fill="black"/>
<path d="M206.58 288.827V242.463H219.046V250.553H219.529C220.374 247.675 221.793 245.502 223.785 244.033C225.778 242.544 228.072 241.799 230.667 241.799C231.311 241.799 232.006 241.84 232.75 241.92C233.495 242.001 234.149 242.111 234.712 242.252V253.662C234.109 253.481 233.273 253.32 232.207 253.179C231.14 253.038 230.164 252.968 229.279 252.968C227.387 252.968 225.697 253.38 224.208 254.205C222.739 255.01 221.572 256.137 220.707 257.586C219.861 259.035 219.439 260.705 219.439 262.597V288.827H206.58Z" fill="black"/>
<path d="M148.075 288.827V227.009H172.827C177.375 227.009 181.168 227.683 184.206 229.031C187.245 230.379 189.529 232.251 191.058 234.646C192.588 237.02 193.352 239.757 193.352 242.856C193.352 245.271 192.869 247.393 191.903 249.225C190.938 251.036 189.609 252.525 187.919 253.692C186.249 254.839 184.337 255.654 182.184 256.137V256.741C184.538 256.841 186.742 257.505 188.794 258.733C190.867 259.96 192.547 261.681 193.835 263.894C195.123 266.088 195.767 268.704 195.767 271.742C195.767 275.023 194.952 277.95 193.322 280.526C191.712 283.082 189.328 285.104 186.168 286.593C183.009 288.082 179.115 288.827 174.487 288.827H148.075ZM161.145 278.142H171.8C175.443 278.142 178.099 277.447 179.769 276.059C181.439 274.65 182.275 272.779 182.275 270.445C182.275 268.734 181.862 267.225 181.037 265.917C180.212 264.609 179.035 263.583 177.505 262.838C175.996 262.093 174.195 261.721 172.102 261.721H161.145V278.142ZM161.145 252.877H170.835C172.625 252.877 174.215 252.565 175.604 251.941C177.012 251.297 178.119 250.392 178.924 249.225C179.749 248.058 180.162 246.659 180.162 245.029C180.162 242.795 179.367 240.994 177.777 239.626C176.207 238.258 173.974 237.573 171.076 237.573H161.145V252.877Z" fill="black"/>
<defs>
<linearGradient id="paint0_linear_4551_3454" x1="86.803" y1="210.425" x2="86.803" y2="302.745" gradientUnits="userSpaceOnUse">
<stop stop-color="#18E8D9"/>
<stop offset="0.53" stop-color="#3BB0E1"/>
<stop offset="1" stop-color="#5E7BEA"/>
</linearGradient>
</defs>
</svg>
