<svg width="600" height="601" viewBox="0 0 600 601" fill="none" xmlns="http://www.w3.org/2000/svg">
<g clip-path="url(#clip0_4551_3571)">
<path d="M600 0.219727H0V600.22H600V0.219727Z" fill="url(#paint0_linear_4551_3571)"/>
<path d="M105.802 303.42H74.9115C73.3915 307.72 68.9015 310.61 63.9015 309.62C60.1915 308.88 57.2115 305.89 56.4715 302.18C55.2515 296.02 59.9315 290.63 65.8715 290.63C70.0415 290.63 73.5915 293.3 74.9115 297.03H94.2815C108.242 295.03 118.892 282.41 118.232 267.77C117.552 252.71 104.662 241.07 94.0815 241.07H40.8915C36.7015 241.07 34.2015 243.72 34.2015 246.99V353.46C34.2015 356.73 37.7515 359.38 41.9415 359.38H105.602C116.182 359.38 129.082 347.74 129.752 332.68C130.412 318.04 119.762 305.42 105.802 303.42ZM56.2815 266.65H75.6515C77.1715 262.35 81.6615 259.46 86.6615 260.45C90.3715 261.19 93.3515 264.18 94.0915 267.89C95.3115 274.05 90.6315 279.44 84.6915 279.44C80.5215 279.44 76.9715 276.77 75.6515 273.04H56.2815V266.64V266.65ZM98.1715 343.19C93.1715 344.19 88.6815 341.29 87.1615 336.99H56.2715V330.59H87.1615C88.4815 326.87 92.0215 324.19 96.2015 324.19C102.142 324.19 106.822 329.59 105.602 335.74C104.872 339.45 101.882 342.44 98.1715 343.18V343.19Z" fill="white"/>
<path d="M565.788 263.301V340.426H549.482V263.301H565.788Z" fill="white"/>
<path d="M480.267 340.426H462.794L489.418 263.301H510.431L537.018 340.426H519.545L500.226 280.925H499.624L480.267 340.426ZM479.175 310.111H520.449V322.839H479.175V310.111Z" fill="white"/>
<path d="M406.873 340.425V282.582H422.915V340.425H406.873ZM414.931 275.126C412.546 275.126 410.5 274.335 408.793 272.753C407.111 271.146 406.27 269.226 406.27 266.991C406.27 264.782 407.111 262.887 408.793 261.305C410.5 259.698 412.546 258.895 414.931 258.895C417.316 258.895 419.35 259.698 421.032 261.305C422.739 262.887 423.593 264.782 423.593 266.991C423.593 269.226 422.739 271.146 421.032 272.753C419.35 274.335 417.316 275.126 414.931 275.126Z" fill="white"/>
<path d="M356.204 282.582L366.824 302.805L377.707 282.582H394.164L377.406 311.504L394.616 340.426H378.234L366.824 320.429L355.602 340.426H339.032L356.204 311.504L339.635 282.582H356.204Z" fill="white"/>
<path d="M302.787 341.555C296.937 341.555 291.878 340.312 287.61 337.827C283.367 335.316 280.091 331.826 277.781 327.358C275.472 322.864 274.317 317.654 274.317 311.729C274.317 305.754 275.472 300.532 277.781 296.063C280.091 291.57 283.367 288.08 287.61 285.594C291.878 283.084 296.937 281.829 302.787 281.829C308.636 281.829 313.682 283.084 317.925 285.594C322.193 288.08 325.482 291.57 327.792 296.063C330.101 300.532 331.256 305.754 331.256 311.729C331.256 317.654 330.101 322.864 327.792 327.358C325.482 331.826 322.193 335.316 317.925 337.827C313.682 340.312 308.636 341.555 302.787 341.555ZM302.862 329.128C305.523 329.128 307.745 328.374 309.527 326.868C311.31 325.337 312.653 323.253 313.557 320.617C314.486 317.981 314.95 314.981 314.95 311.616C314.95 308.252 314.486 305.252 313.557 302.616C312.653 299.98 311.31 297.896 309.527 296.365C307.745 294.833 305.523 294.068 302.862 294.068C300.176 294.068 297.916 294.833 296.083 296.365C294.276 297.896 292.908 299.98 291.979 302.616C291.075 305.252 290.623 308.252 290.623 311.616C290.623 314.981 291.075 317.981 291.979 320.617C292.908 323.253 294.276 325.337 296.083 326.868C297.916 328.374 300.176 329.128 302.862 329.128Z" fill="white"/>
<path d="M232.771 340.425V282.582H248.324V292.674H248.927C249.981 289.084 251.751 286.373 254.236 284.54C256.722 282.682 259.584 281.753 262.822 281.753C263.626 281.753 264.492 281.804 265.421 281.904C266.35 282.004 267.166 282.143 267.869 282.318V296.553C267.116 296.327 266.074 296.126 264.743 295.951C263.412 295.775 262.195 295.687 261.09 295.687C258.73 295.687 256.621 296.202 254.764 297.231C252.931 298.235 251.475 299.641 250.395 301.449C249.341 303.256 248.814 305.34 248.814 307.7V340.425H232.771Z" fill="white"/>
<path d="M159.781 340.426V263.301H190.66C196.334 263.301 201.067 264.142 204.858 265.824C208.649 267.506 211.498 269.841 213.406 272.829C215.314 275.791 216.268 279.206 216.268 283.072C216.268 286.085 215.666 288.733 214.461 291.018C213.255 293.277 211.598 295.135 209.49 296.591C207.406 298.022 205.021 299.039 202.335 299.642V300.395C205.272 300.52 208.021 301.349 210.582 302.88C213.168 304.412 215.264 306.558 216.871 309.32C218.477 312.056 219.281 315.32 219.281 319.111C219.281 323.203 218.264 326.856 216.23 330.07C214.222 333.258 211.247 335.781 207.305 337.639C203.364 339.497 198.506 340.426 192.732 340.426H159.781ZM176.087 327.095H189.38C193.924 327.095 197.238 326.228 199.322 324.496C201.406 322.739 202.448 320.404 202.448 317.492C202.448 315.358 201.933 313.475 200.904 311.843C199.874 310.211 198.406 308.931 196.498 308.002C194.615 307.073 192.368 306.608 189.757 306.608H176.087V327.095ZM176.087 295.575H188.175C190.409 295.575 192.393 295.185 194.125 294.407C195.882 293.604 197.263 292.474 198.267 291.018C199.297 289.562 199.811 287.817 199.811 285.783C199.811 282.997 198.82 280.75 196.836 279.042C194.878 277.335 192.091 276.482 188.476 276.482H176.087V295.575Z" fill="white"/>
</g>
<defs>
<linearGradient id="paint0_linear_4551_3571" x1="300.006" y1="0.219727" x2="300.006" y2="600.22" gradientUnits="userSpaceOnUse">
<stop stop-color="#18E8D9"/>
<stop offset="0.53" stop-color="#3BB0E1"/>
<stop offset="1" stop-color="#5E7BEA"/>
</linearGradient>
<clipPath id="clip0_4551_3571">
<rect width="600" height="600" fill="white" transform="translate(0 0.219727)"/>
</clipPath>
</defs>
</svg>
