<svg width="600" height="601" viewBox="0 0 600 601" fill="none" xmlns="http://www.w3.org/2000/svg">
<g clip-path="url(#clip0_4551_3612)">
<path d="M600 0H0V600H600V0Z" fill="black"/>
<path d="M346.217 241.08H286.237C283.277 249.43 274.577 255.05 264.857 253.12C257.647 251.68 251.857 245.88 250.437 238.68C248.077 226.72 257.157 216.25 268.687 216.25C276.797 216.25 283.677 221.44 286.237 228.67H323.857C350.977 224.78 371.647 200.28 370.377 171.84C369.067 142.59 344.027 120 323.477 120H220.187C212.057 120 207.197 125.15 207.197 131.5V338.27C207.197 344.62 214.087 349.77 222.227 349.77H345.847C366.407 349.77 391.437 327.17 392.747 297.93C394.017 269.49 373.347 244.99 346.227 241.1L346.217 241.08ZM250.057 169.66H287.677C290.637 161.31 299.337 155.69 309.057 157.62C316.267 159.06 322.057 164.86 323.477 172.06C325.837 184.02 316.757 194.49 305.227 194.49C297.117 194.49 290.237 189.3 287.677 182.07H250.057V169.65V169.66ZM331.417 318.32C321.707 320.25 312.997 314.63 310.037 306.28H250.057V293.86H310.037C312.597 286.63 319.477 281.44 327.587 281.44C339.117 281.44 348.207 291.92 345.837 303.87C344.407 311.08 338.617 316.88 331.417 318.31V318.32Z" fill="url(#paint0_linear_4551_3612)"/>
<path d="M509.831 398.325V478.043H492.977V398.325H509.831Z" fill="white"/>
<path d="M421.434 478.043H403.373L430.893 398.325H452.613L480.094 478.043H462.032L442.064 416.542H441.441L421.434 478.043ZM420.305 446.708H462.967V459.865H420.305V446.708Z" fill="white"/>
<path d="M345.571 478.042V418.254H362.153V478.042H345.571ZM353.901 410.547C351.436 410.547 349.321 409.729 347.556 408.094C345.817 406.434 344.948 404.448 344.948 402.139C344.948 399.855 345.817 397.896 347.556 396.261C349.321 394.6 351.436 393.77 353.901 393.77C356.366 393.77 358.468 394.6 360.207 396.261C361.971 397.896 362.853 399.855 362.853 402.139C362.853 404.448 361.971 406.434 360.207 408.094C358.468 409.729 356.366 410.547 353.901 410.547Z" fill="white"/>
<path d="M293.198 418.254L304.175 439.157L315.424 418.254H332.435L315.113 448.148L332.902 478.043H315.969L304.175 457.374L292.576 478.043H275.449L293.198 448.148L276.071 418.254H293.198Z" fill="white"/>
<path d="M237.984 479.21C231.938 479.21 226.709 477.925 222.297 475.356C217.912 472.761 214.525 469.154 212.138 464.535C209.751 459.89 208.557 454.506 208.557 448.381C208.557 442.205 209.751 436.808 212.138 432.189C214.525 427.544 217.912 423.937 222.297 421.368C226.709 418.773 231.938 417.475 237.984 417.475C244.031 417.475 249.246 418.773 253.632 421.368C258.043 423.937 261.443 427.544 263.83 432.189C266.218 436.808 267.411 442.205 267.411 448.381C267.411 454.506 266.218 459.89 263.83 464.535C261.443 469.154 258.043 472.761 253.632 475.356C249.246 477.925 244.031 479.21 237.984 479.21ZM238.062 466.365C240.813 466.365 243.109 465.586 244.952 464.029C246.794 462.446 248.182 460.293 249.117 457.568C250.077 454.843 250.557 451.742 250.557 448.265C250.557 444.787 250.077 441.686 249.117 438.962C248.182 436.237 246.794 434.083 244.952 432.5C243.109 430.917 240.813 430.126 238.062 430.126C235.285 430.126 232.95 430.917 231.056 432.5C229.187 434.083 227.773 436.237 226.813 438.962C225.879 441.686 225.411 444.787 225.411 448.265C225.411 451.742 225.879 454.843 226.813 457.568C227.773 460.293 229.187 462.446 231.056 464.029C232.95 465.586 235.285 466.365 238.062 466.365Z" fill="white"/>
<path d="M165.614 478.042V418.254H181.69V428.686H182.313C183.403 424.975 185.232 422.172 187.801 420.278C190.37 418.358 193.329 417.397 196.676 417.397C197.506 417.397 198.402 417.449 199.362 417.553C200.322 417.657 201.165 417.8 201.892 417.981V432.695C201.114 432.461 200.037 432.254 198.661 432.072C197.286 431.891 196.027 431.8 194.886 431.8C192.446 431.8 190.266 432.332 188.346 433.396C186.452 434.434 184.947 435.887 183.831 437.755C182.741 439.624 182.196 441.777 182.196 444.217V478.042H165.614Z" fill="white"/>
<path d="M90.1687 478.043V398.325H122.087C127.952 398.325 132.843 399.194 136.762 400.933C140.68 402.671 143.625 405.085 145.598 408.173C147.57 411.235 148.556 414.764 148.556 418.76C148.556 421.874 147.933 424.612 146.688 426.973C145.442 429.309 143.729 431.229 141.549 432.734C139.396 434.213 136.93 435.264 134.154 435.887V436.666C137.19 436.795 140.031 437.652 142.678 439.235C145.351 440.818 147.518 443.036 149.179 445.891C150.84 448.719 151.67 452.093 151.67 456.011C151.67 460.241 150.619 464.017 148.517 467.339C146.441 470.634 143.366 473.242 139.292 475.162C135.218 477.083 130.196 478.043 124.228 478.043H90.1687ZM107.023 464.264H120.764C125.461 464.264 128.886 463.368 131.04 461.578C133.194 459.761 134.271 457.348 134.271 454.338C134.271 452.132 133.739 450.186 132.675 448.499C131.611 446.812 130.093 445.489 128.12 444.529C126.174 443.568 123.852 443.088 121.153 443.088H107.023V464.264ZM107.023 431.683H119.518C121.828 431.683 123.878 431.281 125.668 430.477C127.485 429.646 128.912 428.479 129.95 426.973C131.014 425.468 131.546 423.665 131.546 421.563C131.546 418.682 130.521 416.36 128.471 414.595C126.447 412.831 123.566 411.948 119.829 411.948H107.023V431.683Z" fill="white"/>
</g>
<defs>
<linearGradient id="paint0_linear_4551_3612" x1="300" y1="120" x2="300" y2="349.77" gradientUnits="userSpaceOnUse">
<stop stop-color="#18E8D9"/>
<stop offset="0.493253" stop-color="#3BB0E1"/>
<stop offset="1" stop-color="#5E7BEA"/>
</linearGradient>
<clipPath id="clip0_4551_3612">
<rect width="600" height="600" fill="white" transform="translate(0 0.219971)"/>
</clipPath>
</defs>
</svg>
