<svg width="24" height="23" viewBox="0 0 24 23" fill="none" xmlns="http://www.w3.org/2000/svg">
<path fill-rule="evenodd" clip-rule="evenodd" d="M21.6 18.4H2.4C1.0752 18.4 0 19.4304 0 20.7C0 21.9696 1.0752 23 2.4 23H21.6C22.9248 23 24 21.9696 24 20.7C24 19.4304 22.9248 18.4 21.6 18.4ZM21.6 9.2H2.4C1.0752 9.2 0 10.2304 0 11.5C0 12.7696 1.0752 13.8 2.4 13.8H21.6C22.9248 13.8 24 12.7696 24 11.5C24 10.2304 22.9248 9.2 21.6 9.2ZM2.4 4.6H21.6C22.9248 4.6 24 3.5696 24 2.3C24 1.0304 22.9248 0 21.6 0H2.4C1.0752 0 0 1.0304 0 2.3C0 3.5696 1.0752 4.6 2.4 4.6Z" fill="#FFBD52"/>
</svg>
