<svg width="29" height="23" viewBox="0 0 29 23" fill="none" xmlns="http://www.w3.org/2000/svg">
<path d="M24.5457 1.92842C22.6691 1.03476 20.6704 0.376277 18.565 0C18.3056 0.470347 18.0005 1.11315 17.8022 1.63054C15.5747 1.28561 13.3624 1.28561 11.1807 1.63054C10.9671 1.11315 10.662 0.470347 10.4026 0C8.29719 0.376277 6.29855 1.03476 4.42197 1.92842C0.638282 7.79208 -0.383924 13.5147 0.119551 19.1432C2.63692 21.0716 5.06275 22.2318 7.45807 23C8.05309 22.1691 8.57182 21.2754 9.02952 20.3504C8.15988 20.0211 7.33602 19.5978 6.55792 19.1118C6.77151 18.955 6.96985 18.7826 7.16819 18.6258C11.9436 20.9148 17.1156 20.9148 21.83 18.6258C22.0283 18.7982 22.2266 18.955 22.4402 19.1118C21.6621 19.5978 20.823 20.0055 19.9686 20.3504C20.4263 21.2754 20.9451 22.1691 21.5401 23C23.9354 22.2318 26.3765 21.0716 28.8786 19.1432C29.4736 12.6053 27.8564 6.94545 24.5762 1.92842H24.5457ZM9.67031 15.6939C8.23617 15.6939 7.06139 14.3299 7.06139 12.6524C7.06139 10.9748 8.20565 9.6108 9.67031 9.6108C11.135 9.6108 12.2945 10.9748 12.2792 12.6524C12.2792 14.3143 11.135 15.6939 9.67031 15.6939ZM19.2973 15.6939C17.8632 15.6939 16.6884 14.3299 16.6884 12.6524C16.6884 10.9748 17.8327 9.6108 19.2973 9.6108C20.762 9.6108 21.9215 10.9748 21.9062 12.6524C21.9062 14.3143 20.762 15.6939 19.2973 15.6939Z" fill="#FFBD52"/>
</svg>
