<svg width="29" height="29" viewBox="0 0 29 29" fill="none" xmlns="http://www.w3.org/2000/svg">
<path d="M9.42508 2.41699H19.5751C23.4417 2.41699 26.5834 5.55866 26.5834 9.42533V19.5753C26.5834 21.4341 25.845 23.2167 24.5307 24.531C23.2164 25.8453 21.4338 26.5837 19.5751 26.5837H9.42508C5.55841 26.5837 2.41675 23.442 2.41675 19.5753V9.42533C2.41675 7.5666 3.15512 5.784 4.46944 4.46969C5.78376 3.15537 7.56636 2.41699 9.42508 2.41699ZM9.18341 4.83366C8.02972 4.83366 6.92328 5.29196 6.1075 6.10774C5.29172 6.92353 4.83341 8.02997 4.83341 9.18366V19.817C4.83341 22.2216 6.77883 24.167 9.18341 24.167H19.8167C20.9704 24.167 22.0769 23.7087 22.8927 22.8929C23.7084 22.0771 24.1667 20.9707 24.1667 19.817V9.18366C24.1667 6.77908 22.2213 4.83366 19.8167 4.83366H9.18341ZM20.8438 6.64616C21.2444 6.64616 21.6286 6.80529 21.9119 7.08855C22.1951 7.37181 22.3542 7.75599 22.3542 8.15658C22.3542 8.55716 22.1951 8.94134 21.9119 9.2246C21.6286 9.50786 21.2444 9.66699 20.8438 9.66699C20.4432 9.66699 20.0591 9.50786 19.7758 9.2246C19.4925 8.94134 19.3334 8.55716 19.3334 8.15658C19.3334 7.75599 19.4925 7.37181 19.7758 7.08855C20.0591 6.80529 20.4432 6.64616 20.8438 6.64616ZM14.5001 8.45866C16.1024 8.45866 17.6392 9.09519 18.7722 10.2282C19.9052 11.3613 20.5417 12.898 20.5417 14.5003C20.5417 16.1027 19.9052 17.6394 18.7722 18.7724C17.6392 19.9055 16.1024 20.542 14.5001 20.542C12.8977 20.542 11.361 19.9055 10.228 18.7724C9.09495 17.6394 8.45842 16.1027 8.45842 14.5003C8.45842 12.898 9.09495 11.3613 10.228 10.2282C11.361 9.09519 12.8977 8.45866 14.5001 8.45866ZM14.5001 10.8753C13.5387 10.8753 12.6166 11.2572 11.9368 11.9371C11.257 12.6169 10.8751 13.5389 10.8751 14.5003C10.8751 15.4617 11.257 16.3838 11.9368 17.0636C12.6166 17.7434 13.5387 18.1253 14.5001 18.1253C15.4615 18.1253 16.3835 17.7434 17.0633 17.0636C17.7432 16.3838 18.1251 15.4617 18.1251 14.5003C18.1251 13.5389 17.7432 12.6169 17.0633 11.9371C16.3835 11.2572 15.4615 10.8753 14.5001 10.8753Z" fill="#FFBD52"/>
</svg>
