<svg width="1280" height="626" viewBox="0 0 1280 626" fill="none" xmlns="http://www.w3.org/2000/svg">
<path d="M436.798 202L-222.52 668M447.809 202L-139.92 668M458.82 202L-67.1311 668M469.831 202L-1.97491 668M480.841 202L57.1427 668M491.853 202L111.415 668M502.864 202L161.753 668M513.874 202L208.871 668M524.885 202L253.333 668M535.896 202L295.596 668M546.907 202L336.033 668M557.918 202L374.957 668M568.929 202L412.631 668M579.94 202L449.281 668M590.951 202L485.107 668M601.962 202L520.283 668M612.973 202L554.971 668M623.983 202L589.317 668M634.994 202L623.461 668M646.005 202L657.539 668M657.016 202L691.683 668M668.027 202L726.029 668M679.038 202L760.716 668M690.049 202L795.893 668M701.06 202L831.718 668M712.071 202L868.369 668M723.082 202L906.043 668M734.093 202L944.967 668M745.104 202L985.404 668M756.115 202L1027.67 668M767.125 202L1072.13 668M778.136 202L1119.25 668M789.147 202L1169.59 668M800.158 202L1223.86 668M811.169 202L1282.97 668M822.18 202L1348.13 668M833.191 202L1420.92 668M844.202 202L1503.52 668M425.786 202.001H855.214M425.783 202.003H855.217M425.776 202.007H855.224M425.761 202.017H855.239M425.733 202.035H855.267M425.681 202.066H855.318M425.593 202.122H855.407M425.447 202.214H855.553M425.216 202.358H855.784M424.861 202.58H856.139M424.332 202.911H856.668M423.563 203.394H857.437M422.469 204.079H858.531M420.942 205.035H860.057M418.849 206.347H862.15M416.025 208.116H864.975M412.268 210.47H868.732M407.333 213.562H873.667M400.929 217.574H880.071M392.706 222.726H888.294M382.255 229.274H898.745M369.092 237.521H911.908M352.656 247.819H928.344M332.293 260.576H948.707M307.253 276.265H973.747M276.67 295.425H1004.33M239.558 318.676H1041.44M194.797 346.721H1086.2M141.113 380.355H1139.89M77.0706 420.479H1203.93M1.0564 468.104H1279.94M-88.7401 524.364H1369.74M-194.341 590.525H1475.34M425.787 202L-318 668H1599L855.213 202H425.787Z" stroke="url(#paint0_linear_843_387)"/>
<path d="M840 202C840 149.222 819.034 98.6055 781.714 61.2858C744.395 23.966 693.778 3 641 3C588.222 3 537.606 23.966 500.286 61.2857C462.966 98.6055 442 149.222 442 202L641 202H840Z" fill="#FFBD52"/>
<path opacity="0.06" d="M442.008 200.208C441.773 226.34 446.687 252.263 456.47 276.496C466.252 300.728 480.713 322.797 499.024 341.442C517.336 360.086 539.141 374.941 563.193 385.159C587.246 395.377 613.076 400.757 639.208 400.992C665.34 401.227 691.262 396.313 715.495 386.531C739.728 376.748 761.797 362.288 780.441 343.976C799.086 325.664 813.941 303.859 824.159 279.807C834.376 255.754 839.757 229.924 839.992 203.792L641 202L442.008 200.208Z" fill="#FFBD52"/>
<path d="M766 1H799" stroke="#FF76FE" stroke-width="2" stroke-linecap="round"/>
<path d="M766 11H799" stroke="#FF76FE" stroke-width="2" stroke-linecap="round"/>
<path d="M766 21H799" stroke="#FF76FE" stroke-width="2" stroke-linecap="round"/>
<path d="M766 31H799" stroke="#FF76FE" stroke-width="2" stroke-linecap="round"/>
<path d="M766 41H799" stroke="#FF76FE" stroke-width="2" stroke-linecap="round"/>
<path d="M766 51H799" stroke="#FF76FE" stroke-width="2" stroke-linecap="round"/>
<path d="M766 61H799" stroke="#FF76FE" stroke-width="2" stroke-linecap="round"/>
<path d="M484.211 128.385L483.999 161.384" stroke="#43457F" stroke-width="3" stroke-linecap="round"/>
<path d="M474.211 128.321L473.999 161.321" stroke="#43457F" stroke-width="3" stroke-linecap="round"/>
<path d="M464.211 128.257L463.999 161.256" stroke="#43457F" stroke-width="3" stroke-linecap="round"/>
<path d="M454.211 128.192L453.999 161.192" stroke="#43457F" stroke-width="3" stroke-linecap="round"/>
<path d="M444.212 128.128L444 161.127" stroke="#43457F" stroke-width="3" stroke-linecap="round"/>
<path d="M434.212 128.063L434 161.063" stroke="#43457F" stroke-width="3" stroke-linecap="round"/>
<path d="M424.212 128L424 160.999" stroke="#43457F" stroke-width="3" stroke-linecap="round"/>
<rect x="797" y="161" width="72" height="11" fill="#FFA10A"/>
<rect x="819" y="167" width="72" height="7" fill="#FFA10A"/>
<rect x="783" y="183" width="72" height="7" fill="#FFA10A"/>
<rect x="784" y="106" width="72" height="17" fill="#FFA10A"/>
<path d="M686.298 8.22656C722.139 16.606 755.266 34.838 781.714 61.2861C819.034 98.6059 840 149.222 840 202H746.81C760.496 170.325 761.735 143.585 749.5 96.5C738.212 53.0582 718.265 30.6785 686.298 8.22656Z" fill="#FF9D00"/>
<rect x="419" y="171" width="72" height="4" fill="#43457F"/>
<rect x="406" y="175" width="72" height="7" fill="#43457F"/>
<defs>
<linearGradient id="paint0_linear_843_387" x1="-318" y1="668.5" x2="1599" y2="668.5" gradientUnits="userSpaceOnUse">
<stop offset="0.0288462" stop-color="#FF76FE"/>
</linearGradient>
</defs>
</svg>
