<?xml version="1.0" encoding="utf-8"?>
<!-- Generator: Adobe Illustrator 27.7.0, SVG Export Plug-In . SVG Version: 6.00 Build 0)  -->
<svg version="1.1" id="Layer_1" xmlns="http://www.w3.org/2000/svg" xmlns:xlink="http://www.w3.org/1999/xlink" x="0px" y="0px"
	 viewBox="0 0 2774 422.63" style="enable-background:new 0 0 2774 422.63;" xml:space="preserve">
<style type="text/css">
	.st0{fill:#FFFFFF;}
</style>
<g>
	<g>
		<g>
			<path class="st0" d="M469.5,375.98c0.68,1.15,0.14,2.09-1.2,2.09H327.7c-1.33,0-2.98-0.94-3.65-2.09l-48.96-83.25
				c-0.68-1.15-1.78-1.15-2.46,0l-48.96,83.25c-0.68,1.15-2.32,2.09-3.65,2.09H79.4c-1.33,0-1.87-0.94-1.2-2.09l12.29-20.89
				c0.68-1.15,2.32-2.09,3.65-2.09h111.52c1.33,0,2.98-0.94,3.65-2.09l63.31-107.65c0.68-1.15,1.78-1.15,2.46,0l63.31,107.65
				c0.68,1.15,2.32,2.09,3.65,2.09h111.52c1.33,0,2.98,0.94,3.65,2.09L469.5,375.98z"/>
		</g>
		<g>
			<path class="st0" d="M275.08,342.19c-0.68-1.15-1.78-1.15-2.46,0l-19.87,33.79c-0.68,1.15-0.14,2.09,1.2,2.09h39.81
				c1.33,0,1.87-0.94,1.2-2.09L275.08,342.19z"/>
		</g>
	</g>
	<path class="st0" d="M440.02,325.85c0.68,1.15,0.14,2.09-1.2,2.09H356.4c-1.33,0-2.98-0.94-3.65-2.09l-77.66-132.05
		c-0.68-1.15-1.78-1.15-2.46,0l-77.66,132.05c-0.68,1.15-2.32,2.09-3.65,2.09h-82.43c-1.33,0-1.87-0.94-1.2-2.09l12.29-20.89
		c0.68-1.15,2.32-2.09,3.65-2.09h53.33c1.33,0,2.98-0.94,3.65-2.09l92.01-156.45c0.68-1.15,1.78-1.15,2.46,0l92.01,156.45
		c0.68,1.15,2.32,2.09,3.65,2.09h53.33c1.33,0,2.98,0.94,3.65,2.09L440.02,325.85z M137.18,275.72c-0.68,1.15-0.14,2.09,1.2,2.09
		h24.24c1.33,0,2.98-0.94,3.65-2.09L272.63,94.88c0.68-1.15,1.78-1.15,2.46,0l106.36,180.84c0.68,1.15,2.32,2.09,3.65,2.09h24.24
		c1.33,0,1.87-0.94,1.2-2.09L275.08,45.42c-0.68-1.15-1.78-1.15-2.46,0L137.18,275.72z"/>
</g>
<g>
	<path class="st0" d="M1674.6,296.06c-2.83-2.45-4.25-5.71-4.25-9.79c0-4.25,1.61-7.63,4.83-10.14c3.22-2.51,7.54-3.76,12.97-3.76
		h10.09c0.94,0,1.65-0.22,2.12-0.66c0.47-0.44,0.71-1.02,0.71-1.73c0-3.13-1.06-5.62-3.19-7.48c-2.13-1.86-5.05-2.79-8.77-2.79
		c-3.25,0-6.02,0.87-8.32,2.61c-2.3,1.74-3.54,3.85-3.72,6.33h-6.73c0.24-2.83,1.22-5.39,2.97-7.66c1.74-2.27,4.01-4.06,6.82-5.36
		c2.8-1.3,5.86-1.95,9.16-1.95c5.78,0,10.37,1.5,13.77,4.52c3.39,3.01,5.09,7.02,5.09,12.04v28.78h-7.08v-7.7
		c-1.18,2.54-3.14,4.57-5.89,6.11c-2.75,1.54-5.86,2.3-9.34,2.3C1681.19,299.73,1677.44,298.5,1674.6,296.06z M1680.14,291.67
		c1.68,1.36,3.94,2.03,6.78,2.03c4.48,0,7.97-1.31,10.45-3.94c2.48-2.63,3.72-6.24,3.72-10.85v-1.15h-12.48
		c-3.36,0-6.04,0.75-8.01,2.26c-1.98,1.5-2.97,3.56-2.97,6.16C1677.61,288.48,1678.46,290.31,1680.14,291.67z"/>
	<path class="st0" d="M1748.36,296.72c-3.25-2.01-5.71-4.75-7.39-8.23c-1.68-3.48-2.52-7.41-2.52-11.78c0-4.37,0.84-8.29,2.52-11.77
		c1.68-3.48,4.15-6.23,7.39-8.24c3.25-2.01,7.11-3.01,11.6-3.01c3.13,0,6.04,0.72,8.72,2.17c2.69,1.45,4.71,3.38,6.06,5.8v-25.59
		h7.08v62.95h-7.08v-7.35c-1.36,2.42-3.38,4.37-6.06,5.84c-2.69,1.48-5.59,2.21-8.72,2.21
		C1755.47,299.73,1751.61,298.73,1748.36,296.72z M1749.82,288.8c2.69,3.04,6.27,4.56,10.76,4.56s8.07-1.52,10.76-4.56
		c2.69-3.04,4.03-7.07,4.03-12.09c0-5.01-1.34-9.04-4.03-12.09c-2.69-3.04-6.27-4.56-10.76-4.56s-8.07,1.52-10.76,4.56
		c-2.69,3.04-4.03,7.07-4.03,12.09C1745.79,281.72,1747.13,285.75,1749.82,288.8z"/>
	<path class="st0" d="M1801.61,236.07v9.92h-8.15v-9.92H1801.61z M1793.99,254.39h7.08v44.63h-7.08V254.39z"/>
	<path class="st0" d="M1808.2,254.39h7.35l12.66,35.77l12.75-35.77h7.35l-16.29,44.63h-7.44L1808.2,254.39z"/>
	<path class="st0" d="M1863.1,236.07v9.92h-8.15v-9.92H1863.1z M1855.49,254.39h7.08v44.63h-7.08V254.39z"/>
	<path class="st0" d="M1877.06,295.7c-3.19-2.69-4.93-6.36-5.23-11.02h6.82c0.23,2.83,1.31,5.01,3.23,6.55
		c1.92,1.53,4.47,2.3,7.66,2.3c2.77,0,5.03-0.65,6.77-1.95c1.74-1.3,2.61-2.89,2.61-4.78c0-1.89-0.49-3.33-1.46-4.34
		c-0.97-1-2.19-1.73-3.63-2.17c-1.45-0.44-3.5-0.87-6.15-1.28c-3.13-0.47-5.68-1.03-7.66-1.68c-1.98-0.65-3.66-1.86-5.05-3.63
		c-1.39-1.77-2.08-4.28-2.08-7.53c0-3.78,1.46-6.8,4.38-9.08c2.92-2.27,6.74-3.41,11.47-3.41c4.9,0,8.88,1.24,11.95,3.72
		c3.07,2.48,4.72,5.79,4.96,9.92h-6.82c-0.3-2.6-1.48-4.52-3.54-5.76c-2.07-1.24-4.31-1.86-6.73-1.86c-2.6,0-4.69,0.57-6.29,1.73
		s-2.39,2.7-2.39,4.65c0,1.65,0.46,2.93,1.37,3.81c0.92,0.89,2.07,1.5,3.45,1.86c1.39,0.35,3.29,0.71,5.71,1.06
		c3.31,0.48,5.99,1.05,8.06,1.73c2.07,0.68,3.84,1.97,5.31,3.85c1.48,1.89,2.21,4.64,2.21,8.24c0,3.95-1.51,7.13-4.52,9.52
		c-3.01,2.39-6.99,3.59-11.95,3.59C1884.41,299.73,1880.25,298.39,1877.06,295.7z"/>
	<path class="st0" d="M1923.43,236.07v9.92h-8.15v-9.92H1923.43z M1915.82,254.39h7.08v44.63h-7.08V254.39z"/>
	<path class="st0" d="M1943.17,296.76c-3.42-1.98-6.11-4.71-8.06-8.19c-1.95-3.48-2.92-7.44-2.92-11.87c0-4.43,0.97-8.38,2.92-11.86
		c1.95-3.48,4.63-6.21,8.06-8.19c3.42-1.98,7.32-2.97,11.69-2.97c4.37,0,8.28,0.99,11.73,2.97c3.45,1.98,6.16,4.71,8.1,8.19
		c1.95,3.48,2.92,7.44,2.92,11.86c0,4.43-0.97,8.38-2.92,11.87c-1.95,3.48-4.65,6.21-8.1,8.19c-3.45,1.98-7.36,2.97-11.73,2.97
		C1950.48,299.73,1946.59,298.74,1943.17,296.76z M1941.4,285.3c1.3,2.54,3.11,4.52,5.45,5.93c2.33,1.42,5,2.12,8.01,2.12
		s5.7-0.7,8.06-2.12c2.36-1.42,4.19-3.39,5.49-5.93c1.3-2.54,1.95-5.4,1.95-8.59c0-3.19-0.65-6.05-1.95-8.59
		c-1.3-2.54-3.13-4.52-5.49-5.93c-2.36-1.42-5.05-2.13-8.06-2.13s-5.68,0.71-8.01,2.13c-2.33,1.42-4.15,3.4-5.45,5.93
		c-1.3,2.54-1.95,5.4-1.95,8.59C1939.45,279.9,1940.1,282.76,1941.4,285.3z"/>
	<path class="st0" d="M1986.9,254.39h7.08v8.59c1.18-3.07,3.05-5.39,5.62-6.95c2.57-1.57,5.62-2.35,9.16-2.35
		c5.02,0,9.05,1.65,12.09,4.96c3.04,3.3,4.56,7.67,4.56,13.1v27.27h-7.08V272.9c0-3.84-1.02-6.92-3.06-9.26
		c-2.04-2.33-4.74-3.5-8.1-3.5c-3.84,0-6.99,1.39-9.47,4.16c-2.48,2.78-3.72,6.32-3.72,10.62v24.08h-7.08V254.39z"/>
	<path class="st0" d="M2066.5,296.76c-3.42-1.98-6.11-4.71-8.06-8.19c-1.95-3.48-2.92-7.44-2.92-11.87c0-4.43,0.97-8.38,2.92-11.86
		c1.95-3.48,4.63-6.21,8.06-8.19c3.42-1.98,7.32-2.97,11.69-2.97c4.37,0,8.28,0.99,11.73,2.97c3.45,1.98,6.16,4.71,8.1,8.19
		c1.95,3.48,2.92,7.44,2.92,11.86c0,4.43-0.97,8.38-2.92,11.87c-1.95,3.48-4.65,6.21-8.1,8.19c-3.45,1.98-7.36,2.97-11.73,2.97
		C2073.81,299.73,2069.92,298.74,2066.5,296.76z M2064.73,285.3c1.3,2.54,3.11,4.52,5.45,5.93c2.33,1.42,5,2.12,8.01,2.12
		s5.7-0.7,8.06-2.12c2.36-1.42,4.19-3.39,5.49-5.93c1.3-2.54,1.95-5.4,1.95-8.59c0-3.19-0.65-6.05-1.95-8.59
		c-1.3-2.54-3.13-4.52-5.49-5.93c-2.36-1.42-5.05-2.13-8.06-2.13s-5.68,0.71-8.01,2.13c-2.33,1.42-4.15,3.4-5.45,5.93
		c-1.3,2.54-1.95,5.4-1.95,8.59C2062.78,279.9,2063.43,282.76,2064.73,285.3z"/>
	<path class="st0" d="M2113.06,260.68h-9.3v-6.29h9.3v-10.8c0-2.36,0.67-4.2,1.99-5.53c1.33-1.33,3.17-1.99,5.53-1.99h13.37v6.29
		h-13.81v12.04h13.81v6.29h-13.81v38.34h-7.08V260.68z"/>
	<path class="st0" d="M2212.4,237.04v61.98h-11.69v-26.65h-27.63v26.65h-11.6v-61.98h11.6v25.15h27.63v-25.15H2212.4z"/>
	<path class="st0" d="M2237.29,296.1c-4.66-2.42-8.38-6.01-11.16-10.76c-2.77-4.75-4.16-10.52-4.16-17.31
		c0-6.73,1.4-12.48,4.21-17.26c2.8-4.78,6.54-8.38,11.2-10.8c4.66-2.42,9.8-3.63,15.41-3.63c4.9,0,9.37,0.9,13.42,2.7
		c4.04,1.8,7.35,4.34,9.92,7.62c2.57,3.27,4.12,7.04,4.65,11.29h-12.31c-0.41-3.42-2.09-6.2-5.05-8.32
		c-2.95-2.13-6.52-3.19-10.71-3.19c-3.66,0-6.91,0.83-9.74,2.48c-2.83,1.65-5.06,4.12-6.69,7.39c-1.62,3.27-2.43,7.19-2.43,11.73
		c0,4.55,0.81,8.44,2.43,11.69c1.62,3.25,3.85,5.7,6.69,7.35c2.83,1.65,6.08,2.48,9.74,2.48c4.25,0,7.87-1.06,10.85-3.19
		c2.98-2.12,4.74-4.87,5.27-8.23h11.69c-0.41,4.25-1.86,8.02-4.34,11.29c-2.48,3.28-5.74,5.81-9.78,7.62
		c-4.04,1.8-8.58,2.7-13.59,2.7C2247.12,299.73,2241.95,298.52,2237.29,296.1z"/>
	<path class="st0" d="M2292.15,296.36c-1.77-1.77-2.66-4.34-2.66-7.7v-51.62h11.6v51.8h29.04v10.18h-30.28
		C2296.49,299.02,2293.92,298.13,2292.15,296.36z"/>
	<path class="st0" d="M2345.11,297.07c-3.51-1.77-6.29-4.28-8.32-7.53c-2.04-3.25-3.14-7.02-3.32-11.33h11.24
		c0.29,3.48,1.56,6.24,3.81,8.28c2.24,2.03,5.19,3.06,8.86,3.06c3.42,0,6.15-0.69,8.19-2.08c2.04-1.38,3.05-3.41,3.05-6.06
		c0-1.77-0.56-3.22-1.68-4.34c-1.12-1.12-2.55-1.99-4.29-2.61c-1.74-0.62-4.12-1.31-7.13-2.08c-4.25-1.06-7.72-2.17-10.4-3.32
		c-2.69-1.15-4.99-2.97-6.91-5.45c-1.92-2.48-2.88-5.81-2.88-10c0-3.36,0.9-6.36,2.7-8.99c1.8-2.62,4.32-4.66,7.57-6.11
		c3.25-1.45,6.93-2.17,11.07-2.17c4.31,0,8.13,0.78,11.47,2.35c3.33,1.56,5.96,3.79,7.88,6.68c1.92,2.9,2.97,6.26,3.15,10.09H2368
		c-0.3-2.71-1.45-4.9-3.45-6.55c-2.01-1.65-4.64-2.48-7.88-2.48c-3.07,0-5.49,0.65-7.26,1.95c-1.77,1.3-2.66,3.04-2.66,5.23
		c0,1.83,0.57,3.31,1.73,4.43c1.15,1.12,2.6,1.99,4.34,2.61c1.74,0.62,4.18,1.28,7.31,1.99c4.31,1,7.81,2.05,10.49,3.14
		c2.69,1.09,5,2.88,6.95,5.36c1.95,2.48,2.92,5.85,2.92,10.09c0,3.78-0.98,7.06-2.92,9.83c-1.95,2.78-4.66,4.91-8.15,6.42
		c-3.48,1.5-7.5,2.26-12.04,2.26C2352.71,299.73,2348.62,298.84,2345.11,297.07z"/>
	<path class="st0" d="M2397.57,296.76c-3.54-1.98-6.32-4.72-8.32-8.24c-2.01-3.51-3.01-7.45-3.01-11.82c0-4.37,1-8.31,3.01-11.82
		c2.01-3.51,4.78-6.25,8.32-8.23c3.54-1.98,7.55-2.97,12.04-2.97c4.43,0,8.42,0.99,11.95,2.97c3.54,1.98,6.32,4.72,8.32,8.23
		c2.01,3.51,3.01,7.45,3.01,11.82c0,4.37-1,8.31-3.01,11.82c-2.01,3.51-4.78,6.26-8.32,8.24c-3.54,1.98-7.53,2.97-11.95,2.97
		C2405.13,299.73,2401.11,298.74,2397.57,296.76z M2400.63,286.54c2.27,2.54,5.27,3.81,8.99,3.81c3.66,0,6.63-1.27,8.9-3.81
		c2.27-2.54,3.41-5.81,3.41-9.83c0-4.01-1.14-7.29-3.41-9.83c-2.27-2.54-5.24-3.81-8.9-3.81c-3.72,0-6.72,1.25-8.99,3.76
		c-2.27,2.51-3.41,5.8-3.41,9.87C2397.22,280.72,2398.35,284,2400.63,286.54z"/>
	<path class="st0" d="M2444.22,263.52h-8.76v-9.12h8.76v-9.92c0-2.78,0.84-5,2.52-6.69c1.68-1.68,3.91-2.52,6.69-2.52h14.7v9.21
		h-13.02v9.92h13.02v9.12h-13.02v35.51h-10.89V263.52z"/>
	<path class="st0" d="M2482.29,296.63c-1.6-1.6-2.39-3.87-2.39-6.82v-26.3h-8.77v-9.12h8.77v-13.46h10.89v13.46h12.39v9.12h-12.39
		v26.3h12.39v9.21h-14.08C2486.15,299.02,2483.88,298.22,2482.29,296.63z"/>
	<path class="st0" d="M2506.88,254.39h10.89l8.23,29.84l8.76-29.84h10.01l8.68,29.84l8.23-29.84h10.89l-14.25,44.63h-9.65
		l-8.94-30.01l-8.94,30.01h-9.65L2506.88,254.39z"/>
	<path class="st0" d="M2579.39,295.92c-2.74-2.54-4.12-5.76-4.12-9.65c0-4.25,1.52-7.64,4.56-10.18c3.04-2.54,7.1-3.81,12.17-3.81
		h8.24c1.06,0,1.86-0.28,2.39-0.84c0.53-0.56,0.8-1.29,0.8-2.17c0-2.25-0.8-4.04-2.39-5.4c-1.6-1.36-3.81-2.03-6.64-2.03
		c-2.77,0-5,0.74-6.68,2.21s-2.58,3.28-2.7,5.4h-9.74c0.18-2.95,1.09-5.62,2.74-8.01c1.65-2.39,3.94-4.28,6.86-5.66
		c2.92-1.39,6.27-2.08,10.05-2.08c3.78,0,7.13,0.68,10.05,2.03c2.92,1.36,5.2,3.29,6.82,5.8c1.62,2.51,2.43,5.42,2.43,8.72v28.78
		h-10.8v-6.64c-0.89,2.25-2.54,4.03-4.96,5.36c-2.42,1.33-5.19,1.99-8.32,1.99C2585.72,299.73,2582.14,298.46,2579.39,295.92z
		 M2587.72,290.03c1.27,1.03,2.94,1.55,5,1.55c3.36,0,5.99-1.05,7.88-3.14c1.89-2.09,2.83-4.85,2.83-8.28v-0.71h-9.92
		c-2.3,0-4.16,0.57-5.58,1.73c-1.42,1.15-2.13,2.73-2.13,4.74C2585.81,287.63,2586.45,289,2587.72,290.03z"/>
	<path class="st0" d="M2626.45,256.92c1.68-1.68,3.91-2.52,6.68-2.52h16.56v9.12h-14.88v35.51h-10.89V263.6
		C2623.93,260.83,2624.77,258.6,2626.45,256.92z"/>
	<path class="st0" d="M2654.82,265.24c1.65-3.45,4.13-6.24,7.44-8.37c3.3-2.13,7.29-3.19,11.95-3.19c4.72,0,8.72,1.02,12,3.06
		c3.28,2.03,5.71,4.69,7.31,7.97c1.59,3.27,2.39,6.77,2.39,10.49c0,1.3-0.06,2.54-0.17,3.72h-32.94c0.41,3.6,1.71,6.46,3.9,8.59
		s4.99,3.19,8.41,3.19c2.78,0,5.05-0.56,6.82-1.68c1.77-1.12,2.95-2.74,3.54-4.87h10.62c-0.83,4.72-3.16,8.5-6.99,11.33
		c-3.84,2.83-8.5,4.25-13.99,4.25c-4.66,0-8.72-1.09-12.17-3.28c-3.46-2.18-6.08-5.05-7.88-8.59c-1.8-3.54-2.7-7.32-2.7-11.33
		C2652.34,272.46,2653.17,268.69,2654.82,265.24z M2685.02,271.75c-0.24-2.95-1.31-5.34-3.23-7.17c-1.92-1.83-4.44-2.74-7.57-2.74
		c-6.32,0-10.03,3.31-11.16,9.92H2685.02z"/>
</g>
<g>
	<path class="st0" d="M612.38,124.02h36.37l68.38,179.28h-39.95l-14.09-39.19h-64.8l-14.09,39.19h-39.95L612.38,124.02z
		 M609.82,231.85h41.75l-21-58.14L609.82,231.85z"/>
	<path class="st0" d="M785.49,294.85c-13.66-7-24.5-17.42-32.53-31.25c-8.03-13.83-12.04-30.48-12.04-49.95
		c0-19.46,4.05-36.11,12.17-49.94c8.11-13.83,19.04-24.24,32.78-31.25c13.74-7,28.81-10.5,45.21-10.5c14.85,0,28.26,2.65,40.21,7.94
		c11.95,5.29,21.68,12.81,29.2,22.54c7.51,9.73,12.04,21,13.57,33.81H873.6c-1.2-9.39-5.76-16.94-13.7-22.67
		c-7.94-5.72-17.63-8.58-29.07-8.58c-9.73,0-18.44,2.27-26.12,6.79c-7.68,4.53-13.75,11.18-18.18,19.98
		c-4.44,8.8-6.66,19.43-6.66,31.89c0,12.47,2.22,23.1,6.66,31.89c4.44,8.79,10.5,15.41,18.18,19.85c7.68,4.44,16.39,6.66,26.12,6.66
		c11.44,0,21.21-2.86,29.33-8.58c8.11-5.72,12.93-13.19,14.47-22.41h38.67c-1.2,12.64-5.42,23.82-12.68,33.55
		c-7.26,9.73-16.9,17.29-28.94,22.67c-12.04,5.38-25.57,8.07-40.6,8.07C814.35,305.35,799.15,301.85,785.49,294.85z"/>
	<path class="st0" d="M997.43,157.06h-53.02v-33.04h144.71v33.04h-53.02V303.3h-38.68V157.06z"/>
	<path class="st0" d="M1129.08,124.02h38.67V303.3h-38.67V124.02z"/>
	<path class="st0" d="M1275.42,124.02h36.37l68.38,179.28h-39.95l-14.09-39.19h-64.8l-14.09,39.19h-39.95L1275.42,124.02z
		 M1272.86,231.85h41.75l-21-58.14L1272.86,231.85z"/>
	<path class="st0" d="M1419.44,124.02h40.98l71.97,118.58V124.02h38.42V303.3h-40.98l-71.97-118.58V303.3h-38.42V124.02z"/>
</g>
<g>
	<path class="st0" d="M1618.79,127.49h-7.93v-3.33h19.63v3.33h-7.93v22.02h-3.77V127.49z"/>
	<path class="st0" d="M1635.2,124.16h4.64l8.08,20.21l8.08-20.21h4.64v25.35H1657v-18.87l-7.57,18.87h-3.04l-7.61-18.87v18.87h-3.59
		V124.16z"/>
</g>
</svg>
