<?xml version="1.0" encoding="UTF-8"?>
<svg id="Layer_1" data-name="Layer 1" xmlns="http://www.w3.org/2000/svg" viewBox="150 185 330 70">
  <defs>
    <style>
      .cls-1 {
        fill-rule: evenodd;
      }

      .cls-1, .cls-2 {
        fill: #fff;
      }
    </style>
  </defs>
  <rect x="-23.28" y="-14.07" width="672.13" height="461.25" fill="none"/>
  <g>
    <g>
      <polygon class="cls-1" points="174.64 198.23 176.73 198.23 176.73 216.56 176.73 234.88 174.64 234.88 174.64 216.56 174.64 198.23"/>
      <rect class="cls-2" x="171.15" y="203.26" width="2.09" height="13.3"/>
      <rect class="cls-2" x="164.17" y="213.28" width="2.09" height="3.28"/>
      <rect class="cls-2" x="178.14" y="216.56" width="2.09" height="13.3"/>
      <rect class="cls-2" x="185.12" y="216.56" width="2.09" height="3.28"/>
      <rect class="cls-2" x="181.63" y="216.56" width="2.09" height="8.3"/>
      <rect class="cls-2" x="167.66" y="208.26" width="2.09" height="8.3"/>
    </g>
    <g>
      <path class="cls-2" d="M209.63,231.14c-1.28,0-2.56-.3-3.84-.9-1.28-.6-2.27-1.5-2.96-2.7h-.48v3.04h-3.12v-28.04h3.12v11.29h.48c.69-1.2,1.65-2.12,2.88-2.74,1.23-.63,2.56-.94,4-.94,1.63,0,3.14.39,4.53,1.18,1.39.79,2.5,1.94,3.34,3.44.84,1.51,1.26,3.33,1.26,5.47v.8c0,2.16-.41,3.99-1.24,5.49-.83,1.5-1.94,2.64-3.34,3.42-1.4.79-2.94,1.18-4.63,1.18ZM208.99,228.17c1.9,0,3.48-.64,4.75-1.92,1.27-1.28,1.9-3.02,1.9-5.21v-.8c0-1.41-.29-2.66-.88-3.72-.59-1.07-1.38-1.9-2.38-2.5-1-.6-2.13-.9-3.38-.9s-2.34.31-3.34.94-1.8,1.49-2.4,2.58c-.6,1.1-.9,2.35-.9,3.76v.48c0,1.47.29,2.75.88,3.85.59,1.1,1.39,1.94,2.4,2.54,1.01.6,2.14.9,3.36.9Z"/>
      <path class="cls-2" d="M231.34,231.14c-1.74,0-3.3-.39-4.71-1.18-1.4-.79-2.52-1.94-3.34-3.44-.83-1.51-1.24-3.36-1.24-5.55v-.64c0-2.16.41-4,1.24-5.53.83-1.52,1.94-2.68,3.34-3.46,1.4-.79,2.94-1.18,4.63-1.18,1.36,0,2.6.3,3.7.9,1.11.6,1.98,1.53,2.62,2.78h.48v-3.12h3.12v15.78c0,.8.36,1.2,1.08,1.2h1v2.88h-2.12c-.83,0-1.55-.27-2.16-.8-.61-.53-.92-1.39-.92-2.56h-.48c-.64,1.31-1.53,2.29-2.66,2.94-1.13.65-2.33.98-3.58.98ZM231.66,228.17c1.87,0,3.4-.67,4.61-2,1.2-1.33,1.8-3.1,1.8-5.29v-.48c0-1.42-.28-2.67-.84-3.76s-1.32-1.96-2.28-2.58c-.96-.63-2.06-.94-3.28-.94s-2.32.3-3.28.9c-.96.6-1.72,1.44-2.28,2.52-.56,1.08-.84,2.34-.84,3.78v.64c0,2.24.6,4,1.8,5.29s2.74,1.92,4.61,1.92Z"/>
      <path class="cls-2" d="M255.69,231.14c-1.84,0-3.54-.39-5.09-1.18-1.55-.79-2.8-1.94-3.74-3.46-.95-1.52-1.42-3.36-1.42-5.53v-.48c0-2.14.47-3.98,1.42-5.53.95-1.55,2.2-2.74,3.74-3.56s3.24-1.24,5.09-1.24c1.68,0,3.18.33,4.51.98,1.32.65,2.4,1.56,3.24,2.7.84,1.15,1.38,2.46,1.62,3.93l-3.12.72c-.11-.93-.41-1.81-.92-2.62-.51-.81-1.21-1.47-2.1-1.98-.89-.51-2-.76-3.3-.76s-2.45.31-3.5.94c-1.06.63-1.9,1.5-2.52,2.6s-.94,2.38-.94,3.82v.48c0,1.5.31,2.78.94,3.87s1.48,1.91,2.54,2.48c1.07.57,2.26.86,3.56.86s2.41-.26,3.3-.78c.89-.52,1.59-1.19,2.08-2,.49-.81.81-1.68.94-2.58l3.12.72c-.27,1.47-.81,2.78-1.64,3.92-.83,1.15-1.9,2.05-3.22,2.7-1.32.65-2.85.98-4.59.98Z"/>
      <path class="cls-2" d="M269.07,230.58v-28.04h3.12v16.42h.68l7.57-8.25h3.85v.24l-8.25,9.09v.72l9.21,9.57v.24h-3.85l-8.45-8.73h-.76v8.73h-3.12Z"/>
      <path class="cls-2" d="M298.87,231.14c-1.28,0-2.56-.3-3.84-.9-1.28-.6-2.27-1.5-2.96-2.7h-.48v3.04h-3.12v-28.04h3.12v11.29h.48c.69-1.2,1.65-2.12,2.88-2.74,1.23-.63,2.56-.94,4-.94,1.63,0,3.14.39,4.53,1.18,1.39.79,2.5,1.94,3.34,3.44.84,1.51,1.26,3.33,1.26,5.47v.8c0,2.16-.41,3.99-1.24,5.49-.83,1.5-1.94,2.64-3.34,3.42-1.4.79-2.94,1.18-4.63,1.18ZM298.22,228.17c1.9,0,3.48-.64,4.75-1.92,1.27-1.28,1.9-3.02,1.9-5.21v-.8c0-1.41-.29-2.66-.88-3.72-.59-1.07-1.38-1.9-2.38-2.5-1-.6-2.13-.9-3.38-.9s-2.34.31-3.34.94c-1,.63-1.8,1.49-2.4,2.58-.6,1.1-.9,2.35-.9,3.76v.48c0,1.47.29,2.75.88,3.85.59,1.1,1.39,1.94,2.4,2.54,1.01.6,2.14.9,3.36.9Z"/>
      <path class="cls-2" d="M320.85,231.14c-1.76,0-3.4-.4-4.91-1.2-1.51-.8-2.73-1.96-3.66-3.48-.93-1.52-1.4-3.38-1.4-5.57v-.48c0-2.16.47-4.01,1.4-5.55.93-1.54,2.16-2.7,3.66-3.5,1.51-.8,3.14-1.2,4.91-1.2s3.4.4,4.91,1.2c1.51.8,2.73,1.97,3.66,3.5.93,1.54,1.4,3.38,1.4,5.55v.48c0,2.19-.47,4.05-1.4,5.57-.93,1.52-2.16,2.68-3.66,3.48-1.51.8-3.14,1.2-4.91,1.2ZM320.85,228.17c1.28,0,2.43-.29,3.44-.88,1.01-.59,1.82-1.43,2.42-2.52.6-1.09.9-2.39.9-3.88v-.48c0-1.44-.3-2.71-.9-3.8-.6-1.09-1.42-1.95-2.44-2.56-1.03-.61-2.17-.92-3.42-.92s-2.4.31-3.42.92c-1.03.61-1.84,1.47-2.44,2.56-.6,1.1-.9,2.36-.9,3.8v.48c0,1.5.3,2.79.9,3.88.6,1.1,1.42,1.94,2.44,2.52,1.03.59,2.17.88,3.42.88Z"/>
      <path class="cls-2" d="M342.68,231.14c-1.74,0-3.3-.39-4.71-1.18-1.4-.79-2.52-1.94-3.34-3.44-.83-1.51-1.24-3.36-1.24-5.55v-.64c0-2.16.41-4,1.24-5.53.83-1.52,1.94-2.68,3.34-3.46,1.4-.79,2.94-1.18,4.63-1.18,1.36,0,2.6.3,3.7.9,1.11.6,1.98,1.53,2.62,2.78h.48v-3.12h3.12v15.78c0,.8.36,1.2,1.08,1.2h1v2.88h-2.12c-.83,0-1.55-.27-2.16-.8-.61-.53-.92-1.39-.92-2.56h-.48c-.64,1.31-1.53,2.29-2.66,2.94-1.13.65-2.33.98-3.58.98ZM343,228.17c1.87,0,3.4-.67,4.61-2,1.2-1.33,1.8-3.1,1.8-5.29v-.48c0-1.42-.28-2.67-.84-3.76s-1.32-1.96-2.28-2.58c-.96-.63-2.06-.94-3.28-.94s-2.32.3-3.28.9c-.96.6-1.72,1.44-2.28,2.52-.56,1.08-.84,2.34-.84,3.78v.64c0,2.24.6,4,1.8,5.29s2.74,1.92,4.61,1.92Z"/>
      <path class="cls-2" d="M357.9,230.58v-2.88h4.57v-14.1h-4.09v-2.88h7.21v2.64h.48c.51-1.09,1.23-1.9,2.18-2.42.95-.52,2.01-.78,3.18-.78,1.98,0,3.58.66,4.83,1.96,1.24,1.31,1.9,3.22,1.98,5.73l-3.28.48c0-1.84-.44-3.17-1.32-3.98-.88-.81-1.96-1.22-3.24-1.22-1.63,0-2.84.59-3.62,1.78-.79,1.19-1.18,2.65-1.18,4.39v8.41h5.05v2.88h-12.74Z"/>
      <path class="cls-2" d="M390.02,231.14c-1.76,0-3.36-.39-4.81-1.18-1.44-.79-2.59-1.94-3.44-3.46-.85-1.52-1.28-3.36-1.28-5.53v-.64c0-2.16.43-4,1.3-5.51.87-1.51,2.02-2.66,3.44-3.46,1.43-.8,3-1.2,4.71-1.2,1.36,0,2.64.3,3.82.9,1.19.6,2.1,1.53,2.74,2.78h.48v-11.29h3.12v28.04h-3.12v-3.04h-.48c-.64,1.23-1.58,2.14-2.82,2.72-1.24.59-2.46.88-3.66.88ZM390.34,228.17c1.25,0,2.38-.3,3.38-.9,1-.6,1.8-1.45,2.38-2.54.59-1.09.88-2.38.88-3.85v-.48c0-1.42-.3-2.67-.9-3.76-.6-1.1-1.4-1.96-2.4-2.58s-2.12-.94-3.34-.94-2.38.3-3.38.9c-1,.6-1.8,1.44-2.38,2.52-.59,1.08-.88,2.34-.88,3.78v.64c0,1.47.29,2.74.86,3.83.57,1.08,1.37,1.92,2.38,2.5,1.01.59,2.15.88,3.4.88Z"/>
      <path class="cls-2" d="M410.08,231.14c-.75,0-1.4-.28-1.96-.84s-.84-1.22-.84-1.96.28-1.43.84-1.98c.56-.55,1.22-.82,1.96-.82s1.43.27,1.98.82c.55.55.82,1.21.82,1.98s-.27,1.4-.82,1.96c-.55.56-1.21.84-1.98.84Z"/>
      <path class="cls-2" d="M420.7,230.58v-2.88h6.97v-14.1h-6.25v-2.88h9.37v16.98h6.49v2.88h-16.58ZM429.19,207.59c-.75,0-1.4-.28-1.96-.84s-.84-1.22-.84-1.96.28-1.43.84-1.98c.56-.55,1.22-.82,1.96-.82s1.43.27,1.98.82c.55.55.82,1.21.82,1.98s-.27,1.4-.82,1.96c-.55.56-1.21.84-1.98.84Z"/>
      <path class="cls-2" d="M451.43,231.14c-1.76,0-3.4-.4-4.91-1.2-1.51-.8-2.73-1.96-3.66-3.48-.93-1.52-1.4-3.38-1.4-5.57v-.48c0-2.16.47-4.01,1.4-5.55.93-1.54,2.16-2.7,3.66-3.5,1.51-.8,3.14-1.2,4.91-1.2s3.4.4,4.91,1.2c1.51.8,2.73,1.97,3.66,3.5.93,1.54,1.4,3.38,1.4,5.55v.48c0,2.19-.47,4.05-1.4,5.57-.93,1.52-2.16,2.68-3.66,3.48-1.51.8-3.14,1.2-4.91,1.2ZM451.43,228.17c1.28,0,2.43-.29,3.44-.88,1.01-.59,1.82-1.43,2.42-2.52.6-1.09.9-2.39.9-3.88v-.48c0-1.44-.3-2.71-.9-3.8-.6-1.09-1.42-1.95-2.44-2.56-1.03-.61-2.17-.92-3.42-.92s-2.4.31-3.42.92c-1.03.61-1.84,1.47-2.44,2.56-.6,1.1-.9,2.36-.9,3.8v.48c0,1.5.3,2.79.9,3.88.6,1.1,1.42,1.94,2.44,2.52,1.03.59,2.17.88,3.42.88Z"/>
    </g>
  </g>
</svg>