<svg width="334" height="127" viewBox="0 0 1336 507" fill="none" xmlns="http://www.w3.org/2000/svg">
<path d="M423.831 13.5024L359.345 124.673H207.452L131.343 256.497L207.452 388.322H359.374L423.821 499.423L423.803 499.455H232.244C199.808 499.455 183.591 499.455 169.072 494.737C156.227 490.564 144.402 483.736 134.364 474.698C123.02 464.484 114.911 450.439 98.6935 422.349L47.431 333.56C31.2135 305.47 23.1047 291.426 19.9309 276.494C17.1227 263.282 17.1226 249.628 19.9308 236.416C23.1046 221.485 31.2134 207.44 47.4309 179.35L98.6935 90.5601C114.911 62.4702 123.02 48.4253 134.364 38.2108C144.402 29.1729 156.227 22.3457 169.073 18.1719C183.591 13.4546 199.808 13.4546 232.244 13.4546H423.803L423.831 13.5024Z" fill="white"/>
<path d="M552.397 13.4546L405.267 263.102H405.224L346.293 365.174H220.814L158.075 256.506L158.269 256.171H247.859L278.169 308.669L304.477 263.102H304.432L307.059 258.627L308.478 256.171H308.502L451.044 13.4546H552.397Z" fill="#8046FF"/>
<path d="M322.606 365.176H220.805L157.881 256.173H258.573L288.883 308.671L322.606 365.176Z" fill="#FE8742"/>
<path d="M665.279 13.6285C722.634 13.6291 767.506 27.8559 798.843 57.2937C830.53 86.1788 846.178 124.95 846.178 172.884C846.178 208.374 836.579 239.492 817.212 265.945L817.177 265.988C799.277 290 774.786 307.417 744.02 318.389L856.733 499.831H740.781L738.903 496.755L638.002 332.149H581.12V499.831H472.887V191.213L577.544 13.6324L665.279 13.6285ZM581.12 233.376H671.362C692.741 233.376 708.248 227.627 718.87 217.006C730.142 205.734 735.921 191.215 735.921 172.884C735.921 154.549 730.148 140.303 718.956 129.512L718.87 129.435L718.793 129.349C708.159 118.321 692.677 112.384 671.362 112.384H581.12V233.376Z" fill="white"/>
<path d="M1048.35 6.86499C1093.19 6.86505 1132.36 18.1977 1165.56 41.0959L1168.67 43.2499C1200.43 65.8713 1220.53 98.4643 1229.12 140.489L1230.29 146.236L1131.71 176.279L1130.02 169.774C1124.47 148.446 1114.18 132.97 1099.44 122.731L1099.37 122.68C1084.76 112.242 1067.83 106.74 1048.35 106.292C1030.46 106.293 1016.07 110.555 1004.76 118.63L1004.64 118.716C994.028 125.918 988.538 136.624 988.538 151.922C988.538 166.73 993.786 177.218 1003.93 184.413C1015.61 191.9 1033.87 198.679 1059.21 204.462C1107.45 215.282 1142.58 225.992 1164.07 236.72C1191.41 249.928 1212.34 266.645 1226.42 287.045C1240.53 307.496 1247.51 331.293 1247.51 358.161C1247.5 403.249 1230.71 439.612 1197.11 466.6L1197.12 466.609C1164.1 493.498 1119.91 506.594 1065.26 506.595C1016.04 506.595 973.546 495.542 938.074 473.14L937.988 473.088C902.665 450.009 880.322 416.499 870.974 373.032L869.733 367.242L961.958 339.145L968.376 337.181L970.065 343.677C975.545 364.755 986.565 380.463 1003.07 391.228C1019.98 401.792 1039.52 407.159 1061.88 407.159C1082.63 407.159 1099.4 402.828 1112.55 394.606L1112.63 394.563C1125.49 386.767 1131.84 375.38 1131.84 359.505C1131.84 351.345 1130.2 344.842 1127.27 339.714C1124.44 334.768 1119.44 330.109 1111.62 325.989C1103.35 321.64 1095.63 318.442 1088.46 316.33L1088.29 316.287L1088.13 316.227C1080.74 313.621 1070.17 310.517 1056.31 306.939L1040.1 303.062C985.458 290.119 912.963 270.69 886.999 215.525C883.205 207.461 879.926 198.304 877.143 188.1L877.126 188.031C874.276 177.108 872.87 165.743 872.869 153.955C872.869 108.917 889.157 72.7378 921.902 46.162C954.426 19.7668 996.778 6.86535 1048.35 6.86499Z" fill="white"/>
<path d="M1335.66 472.15C1335.66 479.745 1332.95 486.26 1327.51 491.696C1322.15 497.052 1315.68 499.73 1308.08 499.73C1300.41 499.73 1293.9 497.052 1288.54 491.696C1283.18 486.34 1280.51 479.825 1280.51 472.15C1280.51 464.556 1283.18 458.081 1288.54 452.725C1293.98 447.289 1300.49 444.571 1308.08 444.571C1315.6 444.571 1322.07 447.289 1327.51 452.725C1332.95 458.161 1335.66 464.636 1335.66 472.15ZM1286.26 472.15C1286.26 478.066 1288.42 483.182 1292.74 487.499C1297.05 491.816 1302.17 493.974 1308.08 493.974C1314.08 493.974 1319.2 491.856 1323.43 487.619C1327.75 483.302 1329.91 478.146 1329.91 472.15C1329.91 466.075 1327.79 460.919 1323.55 456.682C1319.32 452.445 1314.16 450.327 1308.08 450.327C1302.09 450.327 1296.93 452.485 1292.62 456.802C1288.38 461.039 1286.26 466.155 1286.26 472.15ZM1304.37 470.591H1309.88C1310.92 470.591 1311.8 470.272 1312.52 469.632C1313.24 468.993 1313.6 468.193 1313.6 467.234C1313.6 464.996 1312.12 463.876 1309.16 463.876H1304.37V470.591ZM1313.84 485.7L1307.25 475.628H1304.37V485.7H1298.85V458.6H1310.36C1312.76 458.6 1314.8 459.44 1316.48 461.119C1318.24 462.797 1319.12 464.836 1319.12 467.234C1319.12 469.073 1318.56 470.751 1317.44 472.27C1316.32 473.709 1314.88 474.668 1313.12 475.148L1312.88 475.388L1320.08 485.46V485.7H1313.84Z" fill="white"/>
</svg>
