<?xml version="1.0" encoding="UTF-8"?>
<svg id="_图层_2" data-name="图层 2" xmlns="http://www.w3.org/2000/svg" viewBox="0 0 91.8 80"
  fill="white">
  <g id="_图层_1-2" data-name="图层 1">
    <g>
      <g>
        <path d="M35.15,76.51v-8.88h2.05v-2.51h-2.05v-1.59h-2.58v1.59h-2.05v2.51h2.05v7.13c0,.24,0,.48.06.72.06.24.17.45.34.63.17.17.39.28.63.34.24.06.47.06.72.06h.83Z"/>
        <path d="M26.93,69.6h-1.97c-.57,0-1.03-.46-1.03-1.03v-.1c0-.57.46-1.03,1.03-1.03h4.75v-2.37h-4.75c-1.87,0-3.39,1.52-3.39,3.39v.1c0,1.87,1.52,3.39,3.39,3.39h1.97c.57,0,1.03.46,1.03,1.03v.15c0,.57-.46,1.03-1.03,1.03h-4.48v2.37h4.48c1.87,0,3.39-1.52,3.39-3.39v-.15c0-1.87-1.52-3.39-3.39-3.39Z"/>
        <path d="M81.58,67.74c-.15-.61-.44-1.17-.89-1.62-.45-.45-1.01-.74-1.62-.89-.63-.16-1.23-.16-1.86-.16h-.4c-.54,0-1.05,0-1.58.14-.52.13-.99.37-1.38.75-.38.38-.62.86-.75,1.38-.06.25-.1.5-.12.75h2.38c0-.07,0-.14.02-.22.02-.1.07-.18.14-.26.07-.07.16-.12.26-.14.1-.02.19-.03.29-.03h1.46c.26,0,.5,0,.75.06.25.06.47.18.65.36.18.18.3.41.36.65.06.22.06.49.06.72h-3.13c-1.99,0-3.61,1.67-3.61,3.66s1.62,3.61,3.61,3.61h5.5v-6.85c0-.64,0-1.29-.16-1.92ZM79.38,74.14h-3.13c-.68,0-1.24-.56-1.24-1.24s.56-1.29,1.24-1.29h3.13v2.53Z"/>
        <path d="M42.09,66.22c-.34.25-.61.55-.82.88v-2.03h-2.7v11.44h2.7s-.04-3.96,0-5.21c.01-.33.14-.84.42-1.26.28-.42.65-.8,1.11-1.14.43-.32,1.66-.86,2.31-.98v-2.85c-.42.05-1.58.38-1.89.51-.41.17-.79.39-1.13.64Z"/>
        <path d="M55.4,72.14v-1.68c0-.74,0-1.57-.19-2.3-.18-.71-.5-1.36-1.03-1.88-.52-.52-1.17-.85-1.88-1.03-.73-.18-1.42-.19-2.16-.19h0c-.6,0-1.18.04-1.78.19-.71.18-1.36.5-1.88,1.03-.52.52-.85,1.17-1.03,1.88-.18.73-.19,1.56-.19,2.3v.51c0,.78,0,1.51.2,2.27.19.75.53,1.43,1.08,1.98.55.55,1.23.9,1.98,1.08.77.19,1.5.2,2.27.2h3.99v-2.37h-4.55c-.37,0-.72,0-1.08-.09-.36-.09-.68-.25-.94-.52-.26-.26-.43-.59-.52-.94-.03-.13-.05-.25-.07-.38,0,0,.01,0,.01,0l7.75-.07ZM47.71,68.77c.04-.17.11-.33.19-.48.07-.12.15-.23.26-.33.23-.23.51-.37.82-.45.32-.08.62-.08.94-.08h.82c.32,0,.62,0,.94.08.31.08.59.22.82.45.23.23.37.51.45.81.08.31.08.57.08.89l-5.4.05c0-.32,0-.62.08-.93Z"/>
        <path d="M5.17,73.93h-.23c-.32,0-.61,0-.92-.08-.3-.08-.58-.22-.81-.44-.22-.22-.37-.5-.44-.81-.08-.31-.08-.61-.08-.92v-6.6H0v6.26c0,.72,0,1.41.18,2.12.17.7.5,1.34,1.01,1.85.52.52,1.15.84,1.85,1.01.71.18,1.4.18,2.12.18.72,0,1.41,0,2.12-.18.7-.17,1.34-.5,1.85-1.01.52-.52.84-1.15,1.01-1.85.18-.71.18-1.4.18-2.12v-6.26s-2.66,0-2.66,0v6.6c0,.32,0,.61-.08.92-.08.3-.22.58-.44.81-.22.22-.5.37-.81.44-.31.08-.61.08-.92.08h-.25Z"/>
        <path d="M20.46,67.74c-.15-.61-.43-1.17-.88-1.62-.45-.45-1.01-.73-1.62-.88-.62-.16-1.22-.16-1.85-.16h-4.57v14.92h2.53v-3.48h2.03c.63,0,1.23,0,1.85-.16.61-.15,1.17-.43,1.62-.88.45-.45.73-1.01.88-1.62.16-.62.16-1.22.16-1.85v-2.4c0-.63,0-1.23-.16-1.85ZM18.13,72.12c0,.26,0,.51-.07.77-.06.25-.18.49-.37.67-.19.19-.42.31-.67.37-.26.06-.51.07-.77.07h-2.18v-6.41h2.18c.26,0,.51,0,.77.07.25.06.49.18.67.37.19.19.31.42.37.67.06.26.07.51.07.77v2.65Z"/>
        <path d="M71.64,67.82c-.16-.63-.45-1.21-.91-1.67-.47-.47-1.04-.76-1.67-.91-.52-.13-1.03-.16-1.55-.16-.55,0-1.09.03-1.64.16-.58.14-1.12.41-1.56.81-.45-.41-.98-.67-1.56-.81-.52-.13-1.03-.16-1.55-.16-.55,0-1.09.03-1.64.16-.13.03-.26.07-.38.12v-.28h-2.37v11.44h2.37v-7.39c0-.24,0-.46.06-.69.06-.23.16-.43.33-.6.17-.17.38-.27.6-.33.23-.06.46-.06.69-.06h.59c.24,0,.46,0,.69.06.23.06.43.16.6.33.17.17.27.38.33.6.05.2.06.39.06.58,0,.24-.01.48-.01.73v3.4s.01,3.36.01,3.36h2.37v-6.77c0-.25,0-.49-.01-.73,0-.2.01-.39.06-.58.06-.23.16-.43.33-.6.17-.17.38-.27.6-.33.23-.06.46-.06.69-.06h.59c.24,0,.46,0,.69.06.23.06.43.16.6.33.17.17.27.38.33.6.06.23.06.46.06.69v7.39h2.37v-6.77c0-.65,0-1.27-.17-1.92Z"/>
        <path d="M91.64,67.82c-.16-.63-.45-1.21-.91-1.67-.47-.47-1.04-.76-1.67-.91-.52-.13-1.25-.16-1.67-.16-.42,0-1.12.03-1.67.16-.13.03-.26.07-.38.12v-.26h-2.37v11.42h2.37v-7.39c0-.24,0-.46.06-.69.06-.23.16-.43.33-.6.17-.17.38-.27.6-.33.23-.06.46-.06.69-.06h.75c.24,0,.46,0,.69.06.23.06.43.16.6.33.17.17.27.38.33.6.06.23.06.46.06.69v7.39h2.37v-6.77c0-.65,0-1.27-.17-1.92Z"/>
      </g>
      <g>
        <path d="M73.8,35.71c1.06,0,2.06,0,3.11-.27,1.02-.25,1.96-.73,2.71-1.48.75-.76,1.23-1.69,1.48-2.71.26-1.05.27-2.05.27-3.11V.45c0-.25-.2-.45-.45-.45h-11.32c-.25,0-.45.2-.45.45v34.8c0,.25.2.45.45.45h4.2Z"/>
        <path d="M61.22,48.62h-11.07c-.32,0-.57-.26-.57-.57V.57c0-.32.26-.57.57-.57h11.07c.32,0,.57.26.57.57v47.47c0,.32-.26.57-.57.57"/>
      </g>
      <g>
        <path d="M33.63,48.62c1.2,0,2.34,0,3.53-.3,1.16-.29,2.22-.83,3.08-1.68.86-.86,1.4-1.92,1.68-3.08.3-1.19.3-2.33.3-3.53V12.19c0-.25-.2-.45-.45-.45h-11.32c-.25,0-.45.2-.45.45v35.98c0,.25.2.45.45.45h3.17Z"/>
        <path d="M19.03,48.62c-1.2,0-2.34,0-3.53-.3-1.16-.29-2.22-.83-3.08-1.68-.86-.86-1.4-1.92-1.68-3.08-.3-1.19-.3-2.33-.3-3.53V12.19c0-.25.2-.45.45-.45h11.32c.25,0,.45.2.45.45v35.98c0,.25-.2.45-.45.45h-3.17Z"/>
      </g>
    </g>
  </g>
</svg>